<svg xmlns="http://www.w3.org/2000/svg" width="78" height="78" viewBox="0 0 78 78"><defs><style>.a{fill:#6b2378;stroke:#fff;stroke-width:2px;}</style></defs><g transform="translate(1 1)"><path class="a" d="M76,38a38.5,38.5,0,0,1-.242,4.309,2.971,2.971,0,0,1-5.049,1.766L62.535,35.9a2.969,2.969,0,1,1,4.2-4.2l3.18,3.18A32.055,32.055,0,1,0,66.173,53.32a2.969,2.969,0,1,1,5.213,2.841A38.01,38.01,0,1,1,76,38ZM38,11.875a2.969,2.969,0,0,0-2.969,2.969V38a2.968,2.968,0,0,0,.87,2.1l12.28,12.28a2.969,2.969,0,1,0,4.2-4.2L40.969,36.77V14.844A2.969,2.969,0,0,0,38,11.875Z"/></g></svg>