<svg xmlns="http://www.w3.org/2000/svg" width="59.375" height="76" viewBox="0 0 59.375 76"><defs><style>.a{fill:#6b2378;}</style></defs><path class="a" d="M217.484,128.969A1.484,1.484,0,1,0,216,127.484,1.485,1.485,0,0,0,217.484,128.969Z" transform="translate(-192.25 -107.297)"/><path class="a" d="M217.484,49.8a1.484,1.484,0,0,0,1.484-1.484V41.484a1.484,1.484,0,0,0-2.969,0v6.828A1.484,1.484,0,0,0,217.484,49.8Z" transform="translate(-192.25 -34.063)"/><path class="a" d="M177.484,55.734a1.484,1.484,0,0,0,1.484-1.484V41.484a1.484,1.484,0,0,0-2.969,0V54.25A1.484,1.484,0,0,0,177.484,55.734Z" transform="translate(-158.188 -34.063)"/><path class="a" d="M59.043,34.13A10.323,10.323,0,0,0,56,41.478V74.516A1.484,1.484,0,0,0,57.484,76H84.2a1.484,1.484,0,0,0,1.484-1.484V65.747a14.49,14.49,0,0,0,8.906-13.385v-1h10.391a1.484,1.484,0,0,0,1.484-1.484v-38h2.969a5.938,5.938,0,0,0,0-11.875H64.906a5.938,5.938,0,0,0,0,11.875h2.969V25.3ZM91.625,52.361a11.526,11.526,0,0,1-7.891,10.949,1.484,1.484,0,0,0-1.015,1.408v8.313H58.969V41.478a7.374,7.374,0,0,1,2.173-5.249L67.875,29.5v8.4l-.794.794a1.484,1.484,0,0,0,2.1,2.1L79.6,30.368a4.668,4.668,0,0,1,5.942-.717,4.453,4.453,0,0,1,.581,6.788s-5.983,5.983-8.763,8.769a4.355,4.355,0,0,0-1.082,4.435,10.383,10.383,0,0,1-3.022,10.993,1.484,1.484,0,0,0,1.964,2.226,13.325,13.325,0,0,0,4.447-11.5H91.625Zm0-3.971V2.969h5.938V48.391Zm-12.586,0a1.418,1.418,0,0,1,.421-1.085c2.78-2.786,8.761-8.767,8.761-8.767.153-.153.3-.314.435-.478v10.33Zm9.617-19.864a7.569,7.569,0,0,0-1.379-1.284A7.656,7.656,0,0,0,77.5,28.268l-6.657,6.658V25.913h0V2.969H88.656ZM103.5,48.391h-2.969V2.969H103.5Zm8.906-42.453a2.969,2.969,0,0,1-2.969,2.969h-2.969V2.969h2.969A2.972,2.972,0,0,1,112.406,5.938Zm-47.5,2.969a2.969,2.969,0,0,1,0-5.937h2.969V8.906Z" transform="translate(-56)"/></svg>