<?xml version="1.0" encoding="utf-8"?>
<!-- Generator: Adobe Illustrator 23.0.2, SVG Export Plug-In . SVG Version: 6.00 Build 0)  -->
<svg version="1.1" id="Capa_1" xmlns="http://www.w3.org/2000/svg" xmlns:xlink="http://www.w3.org/1999/xlink" x="0px" y="0px"
	 viewBox="0 0 34.97 47.12" style="enable-background:new 0 0 34.97 47.12;" xml:space="preserve">
<style type="text/css">
	.st0{opacity:0.4;}
	.st1{opacity:0.3;}
	.st2{fill:#523788;}
	.st3{fill:#F4F4F4;}
	.st4{fill:#979797;}
	.st5{fill:none;stroke:#979797;stroke-width:0.25;stroke-miterlimit:10;}
	.st6{fill:url(#SVGID_1_);}
	.st7{fill:#FFFFFF;}
	.st8{fill:url(#SVGID_2_);}
	.st9{fill:url(#SVGID_3_);}
	.st10{fill:url(#SVGID_4_);}
	.st11{fill:url(#SVGID_5_);}
	.st12{fill:url(#SVGID_6_);}
	.st13{fill:url(#SVGID_7_);}
	.st14{fill:url(#SVGID_8_);}
	.st15{fill:url(#SVGID_9_);}
	.st16{fill:url(#SVGID_10_);}
	.st17{fill:url(#SVGID_11_);}
	.st18{fill:url(#SVGID_12_);}
	.st19{fill:url(#SVGID_13_);}
	.st20{fill:url(#SVGID_14_);}
	.st21{fill:url(#SVGID_15_);}
	.st22{fill:url(#SVGID_16_);}
	.st23{fill:url(#SVGID_17_);}
	.st24{fill:url(#SVGID_18_);}
	.st25{fill:url(#SVGID_19_);}
	.st26{fill:url(#SVGID_20_);}
	.st27{fill:url(#SVGID_21_);}
	.st28{fill:url(#SVGID_22_);}
	.st29{fill:url(#SVGID_23_);}
	.st30{fill:url(#SVGID_24_);}
	.st31{fill:url(#SVGID_25_);}
	.st32{fill:url(#SVGID_26_);}
	.st33{fill:url(#SVGID_27_);}
	.st34{fill:url(#SVGID_28_);}
	.st35{fill:url(#SVGID_29_);}
	.st36{fill:url(#SVGID_30_);}
	.st37{fill:url(#SVGID_31_);}
	.st38{fill:url(#SVGID_32_);}
	.st39{fill:url(#SVGID_33_);}
	.st40{fill:url(#SVGID_34_);}
	.st41{fill:url(#SVGID_35_);}
	.st42{fill:url(#SVGID_36_);}
	.st43{fill:url(#SVGID_37_);}
	.st44{fill:url(#SVGID_38_);}
	.st45{fill:url(#SVGID_39_);}
	.st46{fill:url(#SVGID_40_);}
	.st47{fill:url(#SVGID_41_);}
	.st48{fill:url(#SVGID_42_);}
	.st49{fill:url(#SVGID_43_);}
	.st50{fill:url(#SVGID_44_);}
	.st51{fill:url(#SVGID_45_);}
	.st52{fill:url(#SVGID_46_);}
	.st53{fill:url(#SVGID_47_);}
	.st54{fill:url(#SVGID_48_);}
	.st55{fill:url(#SVGID_49_);}
	.st56{fill:url(#SVGID_50_);}
	.st57{fill:url(#SVGID_51_);}
	.st58{fill:url(#SVGID_52_);}
	.st59{fill:url(#SVGID_53_);}
	.st60{fill:url(#SVGID_54_);}
	.st61{fill:url(#SVGID_55_);}
	.st62{fill:url(#SVGID_56_);}
	.st63{fill:url(#SVGID_57_);}
	.st64{fill:url(#SVGID_58_);}
	.st65{fill:url(#SVGID_59_);}
	.st66{fill:url(#SVGID_60_);}
	.st67{fill:url(#SVGID_61_);}
	.st68{fill:url(#SVGID_62_);}
	.st69{fill:#ECEDEF;}
	.st70{opacity:0.1;fill:#F0F5FA;}
	.st71{fill:#D7D8DC;}
	.st72{fill:#E6E6E6;}
	.st73{opacity:0.1;fill:url(#SVGID_63_);}
	.st74{fill-rule:evenodd;clip-rule:evenodd;fill:#FFFFFF;}
	.st75{fill-rule:evenodd;clip-rule:evenodd;fill:none;stroke:#FFFFFF;stroke-width:0.25;stroke-miterlimit:10;}
	.st76{fill:none;stroke:#FFFFFF;stroke-width:0.5;stroke-miterlimit:10;}
	.st77{opacity:0.3;fill:none;stroke:#FFFFFF;stroke-width:0.5;stroke-miterlimit:10;}
	.st78{fill:#A4CD3C;}
	.st79{fill:#85A939;}
	.st80{fill:#606060;}
	.st81{fill:#CACACA;}
	.st82{fill:url(#SVGID_64_);}
	.st83{fill:#FFEA00;}
	.st84{fill:none;stroke:#FFEA00;stroke-miterlimit:10;}
	.st85{clip-path:url(#SVGID_68_);}
	.st86{fill:#F0F0F0;}
	.st87{clip-path:url(#SVGID_72_);}
	.st88{clip-path:url(#SVGID_78_);fill:#FFFFFF;}
	.st89{fill:url(#SVGID_79_);}
	.st90{fill:url(#SVGID_80_);}
	.st91{fill:url(#SVGID_81_);}
	.st92{fill:url(#SVGID_82_);}
	.st93{fill:url(#SVGID_83_);}
	.st94{fill:url(#SVGID_84_);}
	.st95{fill:url(#SVGID_85_);}
	.st96{fill:url(#SVGID_86_);}
	.st97{fill:#808080;}
	.st98{fill:url(#SVGID_89_);}
	.st99{fill:none;stroke:#523788;stroke-width:0.75;stroke-miterlimit:10;}
	.st100{fill:none;stroke:#523788;stroke-miterlimit:10;}
	.st101{opacity:0.9;}
	.st102{fill:none;stroke:url(#SVGID_90_);stroke-miterlimit:10;}
	.st103{fill:none;stroke:url(#SVGID_91_);stroke-miterlimit:10;}
	.st104{fill:none;stroke:url(#SVGID_92_);stroke-miterlimit:10;}
	.st105{fill:none;stroke:url(#SVGID_93_);stroke-miterlimit:10;}
	.st106{fill:none;stroke:url(#SVGID_94_);stroke-miterlimit:10;}
	.st107{fill:none;stroke:url(#SVGID_95_);stroke-miterlimit:10;}
	.st108{fill:none;stroke:url(#SVGID_96_);stroke-miterlimit:10;}
	.st109{fill:none;stroke:url(#SVGID_97_);stroke-miterlimit:10;}
	.st110{opacity:0.9;fill:url(#SVGID_98_);}
	.st111{fill:#BBA1BF;}
	.st112{opacity:0.9;fill:url(#SVGID_99_);}
	.st113{opacity:0.8;}
</style>
<g id="surface1_2_">
	<linearGradient id="SVGID_1_" gradientUnits="userSpaceOnUse" x1="0" y1="23.5606" x2="34.9728" y2="23.5606">
		<stop  offset="0.3305" style="stop-color:#7C3F80"/>
		<stop  offset="0.5689" style="stop-color:#6C3879"/>
		<stop  offset="1" style="stop-color:#452667"/>
	</linearGradient>
	<path class="st6" d="M31.29,18.13v-4.33C31.29,6.19,25.1,0,17.49,0S3.68,6.19,3.68,13.81v4.33C1.58,18.56,0,20.42,0,22.64v5.22
		c0,0.51,0.41,0.92,0.92,0.92s0.92-0.41,0.92-0.92v-5.22c0-1.52,1.24-2.76,2.76-2.76h25.77c1.52,0,2.76,1.24,2.76,2.76v19.88
		c0,1.2-0.77,2.22-1.84,2.6v-5.55c0-0.51-0.41-0.92-0.92-0.92s-0.92,0.41-0.92,0.92v5.71H4.6c-1.52,0-2.76-1.24-2.76-2.76v-7.27
		c0-0.51-0.41-0.92-0.92-0.92S0,34.74,0,35.25v7.27c0,2.54,2.06,4.6,4.6,4.6h25.77c2.54,0,4.6-2.06,4.6-4.6V22.64
		C34.97,20.42,33.39,18.56,31.29,18.13z M10.49,18.04v-4.23c0-3.86,3.14-6.99,6.99-6.99s6.99,3.14,6.99,6.99v4.23H10.49z
		 M26.32,18.04v-4.23c0-4.87-3.96-8.84-8.84-8.84s-8.84,3.96-8.84,8.84v4.23H5.52v-4.23c0-6.6,5.37-11.96,11.96-11.96
		s11.96,5.37,11.96,11.96v4.23H26.32z"/>
	<linearGradient id="SVGID_2_" gradientUnits="userSpaceOnUse" x1="0" y1="31.5205" x2="1.8407" y2="31.5205">
		<stop  offset="0.3305" style="stop-color:#7C3F80"/>
		<stop  offset="0.5689" style="stop-color:#6C3879"/>
		<stop  offset="1" style="stop-color:#452667"/>
	</linearGradient>
	<path class="st8" d="M0.92,32.44c0.24,0,0.48-0.1,0.65-0.27c0.17-0.17,0.27-0.41,0.27-0.65c0-0.24-0.1-0.48-0.27-0.65
		C1.4,30.7,1.16,30.6,0.92,30.6s-0.48,0.1-0.65,0.27C0.1,31.04,0,31.28,0,31.52c0,0.24,0.1,0.48,0.27,0.65
		C0.44,32.34,0.68,32.44,0.92,32.44z"/>
	<linearGradient id="SVGID_3_" gradientUnits="userSpaceOnUse" x1="12.5285" y1="33.7724" x2="22.4681" y2="33.7724">
		<stop  offset="0.3305" style="stop-color:#7C3F80"/>
		<stop  offset="0.5689" style="stop-color:#6C3879"/>
		<stop  offset="1" style="stop-color:#452667"/>
	</linearGradient>
	<path class="st9" d="M17.49,42.15c1.52,0,2.76-1.24,2.76-2.76V34.5c1.38-0.92,2.22-2.45,2.22-4.14c0-2.74-2.23-4.97-4.97-4.97
		c-2.74,0-4.97,2.23-4.97,4.97c0,1.67,0.83,3.21,2.2,4.12v4.9C14.73,40.91,15.96,42.15,17.49,42.15z M14.37,30.36
		c0-1.73,1.4-3.13,3.13-3.13c1.73,0,3.13,1.4,3.13,3.13c0,1.18-0.66,2.25-1.72,2.79c-0.31,0.16-0.5,0.47-0.5,0.82v5.41
		c0,0.51-0.41,0.92-0.92,0.92s-0.92-0.41-0.92-0.92v-5.43c0-0.34-0.19-0.66-0.5-0.82C15.02,32.61,14.37,31.54,14.37,30.36z"/>
	<linearGradient id="SVGID_4_" gradientUnits="userSpaceOnUse" x1="29.4508" y1="35.8011" x2="31.2915" y2="35.8011">
		<stop  offset="0.3305" style="stop-color:#7C3F80"/>
		<stop  offset="0.5689" style="stop-color:#6C3879"/>
		<stop  offset="1" style="stop-color:#452667"/>
	</linearGradient>
	<path class="st10" d="M30.37,36.72c0.24,0,0.48-0.1,0.65-0.27c0.17-0.17,0.27-0.41,0.27-0.65s-0.1-0.48-0.27-0.65
		c-0.17-0.17-0.41-0.27-0.65-0.27c-0.24,0-0.48,0.1-0.65,0.27c-0.17,0.17-0.27,0.41-0.27,0.65c0,0.24,0.1,0.48,0.27,0.65
		C29.89,36.62,30.13,36.72,30.37,36.72z"/>
</g>
</svg>
