<?xml version="1.0" encoding="utf-8"?>
<!-- Generator: Adobe Illustrator 23.0.2, SVG Export Plug-In . SVG Version: 6.00 Build 0)  -->
<svg version="1.1" id="Capa_1" xmlns="http://www.w3.org/2000/svg" xmlns:xlink="http://www.w3.org/1999/xlink" x="0px" y="0px"
	 viewBox="0 0 27.94 46.57" style="enable-background:new 0 0 27.94 46.57;" xml:space="preserve">
<style type="text/css">
	.st0{opacity:0.4;}
	.st1{opacity:0.3;}
	.st2{fill:#523788;}
	.st3{fill:#F4F4F4;}
	.st4{fill:#979797;}
	.st5{fill:none;stroke:#979797;stroke-width:0.25;stroke-miterlimit:10;}
	.st6{fill:url(#SVGID_1_);}
	.st7{fill:#FFFFFF;}
	.st8{fill:url(#SVGID_2_);}
	.st9{fill:url(#SVGID_3_);}
	.st10{fill:url(#SVGID_4_);}
	.st11{fill:url(#SVGID_5_);}
	.st12{fill:url(#SVGID_6_);}
	.st13{fill:url(#SVGID_7_);}
	.st14{fill:url(#SVGID_8_);}
	.st15{fill:url(#SVGID_9_);}
	.st16{fill:url(#SVGID_10_);}
	.st17{fill:url(#SVGID_11_);}
	.st18{fill:url(#SVGID_12_);}
	.st19{fill:url(#SVGID_13_);}
	.st20{fill:url(#SVGID_14_);}
	.st21{fill:url(#SVGID_15_);}
	.st22{fill:url(#SVGID_16_);}
	.st23{fill:url(#SVGID_17_);}
	.st24{fill:url(#SVGID_18_);}
	.st25{fill:url(#SVGID_19_);}
	.st26{fill:url(#SVGID_20_);}
	.st27{fill:url(#SVGID_21_);}
	.st28{fill:url(#SVGID_22_);}
	.st29{fill:url(#SVGID_23_);}
	.st30{fill:url(#SVGID_24_);}
	.st31{fill:url(#SVGID_25_);}
	.st32{fill:url(#SVGID_26_);}
	.st33{fill:url(#SVGID_27_);}
	.st34{fill:url(#SVGID_28_);}
	.st35{fill:url(#SVGID_29_);}
	.st36{fill:url(#SVGID_30_);}
	.st37{fill:url(#SVGID_31_);}
	.st38{fill:url(#SVGID_32_);}
	.st39{fill:url(#SVGID_33_);}
	.st40{fill:url(#SVGID_34_);}
	.st41{fill:url(#SVGID_35_);}
	.st42{fill:url(#SVGID_36_);}
	.st43{fill:url(#SVGID_37_);}
	.st44{fill:url(#SVGID_38_);}
	.st45{fill:url(#SVGID_39_);}
	.st46{fill:url(#SVGID_40_);}
	.st47{fill:url(#SVGID_41_);}
	.st48{fill:url(#SVGID_42_);}
	.st49{fill:url(#SVGID_43_);}
	.st50{fill:url(#SVGID_44_);}
	.st51{fill:url(#SVGID_45_);}
	.st52{fill:url(#SVGID_46_);}
	.st53{fill:url(#SVGID_47_);}
	.st54{fill:url(#SVGID_48_);}
	.st55{fill:url(#SVGID_49_);}
	.st56{fill:url(#SVGID_50_);}
	.st57{fill:url(#SVGID_51_);}
	.st58{fill:url(#SVGID_52_);}
	.st59{fill:url(#SVGID_53_);}
	.st60{fill:url(#SVGID_54_);}
	.st61{fill:url(#SVGID_55_);}
	.st62{fill:url(#SVGID_56_);}
	.st63{fill:url(#SVGID_57_);}
	.st64{fill:url(#SVGID_58_);}
	.st65{fill:url(#SVGID_59_);}
	.st66{fill:url(#SVGID_60_);}
	.st67{fill:url(#SVGID_61_);}
	.st68{fill:url(#SVGID_62_);}
	.st69{fill:#ECEDEF;}
	.st70{opacity:0.1;fill:#F0F5FA;}
	.st71{fill:#D7D8DC;}
	.st72{fill:#E6E6E6;}
	.st73{opacity:0.1;fill:url(#SVGID_63_);}
	.st74{fill-rule:evenodd;clip-rule:evenodd;fill:#FFFFFF;}
	.st75{fill-rule:evenodd;clip-rule:evenodd;fill:none;stroke:#FFFFFF;stroke-width:0.25;stroke-miterlimit:10;}
	.st76{fill:none;stroke:#FFFFFF;stroke-width:0.5;stroke-miterlimit:10;}
	.st77{opacity:0.3;fill:none;stroke:#FFFFFF;stroke-width:0.5;stroke-miterlimit:10;}
	.st78{fill:#A4CD3C;}
	.st79{fill:#85A939;}
	.st80{fill:#606060;}
	.st81{fill:#CACACA;}
	.st82{fill:url(#SVGID_64_);}
	.st83{fill:#FFEA00;}
	.st84{fill:none;stroke:#FFEA00;stroke-miterlimit:10;}
	.st85{clip-path:url(#SVGID_68_);}
	.st86{fill:#F0F0F0;}
	.st87{clip-path:url(#SVGID_72_);}
	.st88{clip-path:url(#SVGID_78_);fill:#FFFFFF;}
	.st89{fill:url(#SVGID_79_);}
	.st90{fill:url(#SVGID_80_);}
	.st91{fill:url(#SVGID_81_);}
	.st92{fill:url(#SVGID_82_);}
	.st93{fill:url(#SVGID_83_);}
	.st94{fill:url(#SVGID_84_);}
	.st95{fill:url(#SVGID_85_);}
	.st96{fill:url(#SVGID_86_);}
	.st97{fill:#808080;}
	.st98{fill:url(#SVGID_89_);}
	.st99{fill:none;stroke:#523788;stroke-width:0.75;stroke-miterlimit:10;}
	.st100{fill:none;stroke:#523788;stroke-miterlimit:10;}
	.st101{opacity:0.9;}
	.st102{fill:none;stroke:url(#SVGID_90_);stroke-miterlimit:10;}
	.st103{fill:none;stroke:url(#SVGID_91_);stroke-miterlimit:10;}
	.st104{fill:none;stroke:url(#SVGID_92_);stroke-miterlimit:10;}
	.st105{fill:none;stroke:url(#SVGID_93_);stroke-miterlimit:10;}
	.st106{fill:none;stroke:url(#SVGID_94_);stroke-miterlimit:10;}
	.st107{fill:none;stroke:url(#SVGID_95_);stroke-miterlimit:10;}
	.st108{fill:none;stroke:url(#SVGID_96_);stroke-miterlimit:10;}
	.st109{fill:none;stroke:url(#SVGID_97_);stroke-miterlimit:10;}
	.st110{opacity:0.9;fill:url(#SVGID_98_);}
	.st111{fill:#BBA1BF;}
	.st112{opacity:0.9;fill:url(#SVGID_99_);}
	.st113{opacity:0.8;}
</style>
<g>
	<g>
		<linearGradient id="SVGID_1_" gradientUnits="userSpaceOnUse" x1="0" y1="23.2851" x2="27.9421" y2="23.2851">
			<stop  offset="0.3305" style="stop-color:#7C3F80"/>
			<stop  offset="0.5689" style="stop-color:#6C3879"/>
			<stop  offset="1" style="stop-color:#452667"/>
		</linearGradient>
		<path class="st6" d="M25.61,0H2.33C1.04,0,0,1.04,0,2.33v41.91c0,1.29,1.04,2.33,2.33,2.33h23.29c1.29,0,2.33-1.04,2.33-2.33V2.33
			C27.94,1.04,26.9,0,25.61,0z M26.39,6.21H8.54c-0.43,0-0.78,0.35-0.78,0.78s0.35,0.78,0.78,0.78h17.85v30.27h-2.33
			c-0.43,0-0.78,0.35-0.78,0.78s0.35,0.78,0.78,0.78h2.33v4.66c0,0.43-0.35,0.78-0.78,0.78H2.33c-0.43,0-0.78-0.35-0.78-0.78v-4.66
			H19.4c0.43,0,0.78-0.35,0.78-0.78s-0.35-0.78-0.78-0.78H1.55V7.76h2.33c0.43,0,0.78-0.35,0.78-0.78S4.31,6.21,3.88,6.21H1.55V2.33
			c0-0.43,0.35-0.78,0.78-0.78h23.29c0.43,0,0.78,0.35,0.78,0.78V6.21z"/>
		<linearGradient id="SVGID_2_" gradientUnits="userSpaceOnUse" x1="11.6486" y1="42.6893" x2="16.2935" y2="42.6893">
			<stop  offset="0.3305" style="stop-color:#7C3F80"/>
			<stop  offset="0.5689" style="stop-color:#6C3879"/>
			<stop  offset="1" style="stop-color:#452667"/>
		</linearGradient>
		<path class="st8" d="M15.13,41.91h-2.32c-0.64,0-1.16,0.35-1.16,0.78s0.52,0.78,1.16,0.78h2.32c0.64,0,1.16-0.35,1.16-0.78
			S15.77,41.91,15.13,41.91z"/>
	</g>
</g>
</svg>
