<svg id="check-icon" xmlns="http://www.w3.org/2000/svg" width="13.88" height="13.88" viewBox="0 0 13.88 13.88">
  <circle id="Ellipse_1" data-name="Ellipse 1" cx="6.94" cy="6.94" r="6.94" transform="translate(0 0)" fill="#fff"/>
  <path id="Path_4" data-name="Path 4" d="M10.07,4.33a.648.648,0,0,0-.52-.46.671.671,0,0,0-.69.27C8.09,5.16,7.32,6.18,6.54,7.2c-.08.1-.16.21-.24.31h0l-.44.59H5.85l-.6-.9h0c-.09-.12-.17-.26-.27-.38a.642.642,0,0,0-.71-.22.69.69,0,0,0-.38,1.06c.43.67.87,1.34,1.31,2.02a.692.692,0,0,0,1.17.04c.82-1.08,1.64-2.17,2.46-3.25.38-.5.75-.99,1.13-1.49A.685.685,0,0,0,10.07,4.33Z" fill="#6c3875"/>
</svg>
