<?xml version="1.0" encoding="utf-8"?>
<!-- Generator: Adobe Illustrator 23.0.2, SVG Export Plug-In . SVG Version: 6.00 Build 0)  -->
<svg version="1.1" id="Capa_1" xmlns="http://www.w3.org/2000/svg" xmlns:xlink="http://www.w3.org/1999/xlink" x="0px" y="0px"
	 viewBox="0 0 35.34 56.54" style="enable-background:new 0 0 35.34 56.54;" xml:space="preserve">
<style type="text/css">
	.st0{opacity:0.4;}
	.st1{opacity:0.3;}
	.st2{fill:#523788;}
	.st3{fill:#F4F4F4;}
	.st4{fill:#979797;}
	.st5{fill:none;stroke:#979797;stroke-width:0.25;stroke-miterlimit:10;}
	.st6{fill:url(#SVGID_1_);}
	.st7{fill:#FFFFFF;}
	.st8{fill:url(#SVGID_2_);}
	.st9{fill:url(#SVGID_3_);}
	.st10{fill:url(#SVGID_4_);}
	.st11{fill:url(#SVGID_5_);}
	.st12{fill:url(#SVGID_6_);}
	.st13{fill:url(#SVGID_7_);}
	.st14{fill:url(#SVGID_8_);}
	.st15{fill:url(#SVGID_9_);}
	.st16{fill:url(#SVGID_10_);}
	.st17{fill:url(#SVGID_11_);}
	.st18{fill:url(#SVGID_12_);}
	.st19{fill:url(#SVGID_13_);}
	.st20{fill:url(#SVGID_14_);}
	.st21{fill:url(#SVGID_15_);}
	.st22{fill:url(#SVGID_16_);}
	.st23{fill:url(#SVGID_17_);}
	.st24{fill:url(#SVGID_18_);}
	.st25{fill:url(#SVGID_19_);}
	.st26{fill:url(#SVGID_20_);}
	.st27{fill:url(#SVGID_21_);}
	.st28{fill:url(#SVGID_22_);}
	.st29{fill:url(#SVGID_23_);}
	.st30{fill:url(#SVGID_24_);}
	.st31{fill:url(#SVGID_25_);}
	.st32{fill:url(#SVGID_26_);}
	.st33{fill:url(#SVGID_27_);}
	.st34{fill:url(#SVGID_28_);}
	.st35{fill:url(#SVGID_29_);}
	.st36{fill:url(#SVGID_30_);}
	.st37{fill:url(#SVGID_31_);}
	.st38{fill:url(#SVGID_32_);}
	.st39{fill:url(#SVGID_33_);}
	.st40{fill:url(#SVGID_34_);}
	.st41{fill:url(#SVGID_35_);}
	.st42{fill:url(#SVGID_36_);}
	.st43{fill:url(#SVGID_37_);}
	.st44{fill:url(#SVGID_38_);}
	.st45{fill:url(#SVGID_39_);}
	.st46{fill:url(#SVGID_40_);}
	.st47{fill:url(#SVGID_41_);}
	.st48{fill:url(#SVGID_42_);}
	.st49{fill:url(#SVGID_43_);}
	.st50{fill:url(#SVGID_44_);}
	.st51{fill:url(#SVGID_45_);}
	.st52{fill:url(#SVGID_46_);}
	.st53{fill:url(#SVGID_47_);}
	.st54{fill:url(#SVGID_48_);}
	.st55{fill:url(#SVGID_49_);}
	.st56{fill:url(#SVGID_50_);}
	.st57{fill:url(#SVGID_51_);}
	.st58{fill:url(#SVGID_52_);}
	.st59{fill:url(#SVGID_53_);}
	.st60{fill:url(#SVGID_54_);}
	.st61{fill:url(#SVGID_55_);}
	.st62{fill:url(#SVGID_56_);}
	.st63{fill:url(#SVGID_57_);}
	.st64{fill:url(#SVGID_58_);}
	.st65{fill:url(#SVGID_59_);}
	.st66{fill:url(#SVGID_60_);}
	.st67{fill:url(#SVGID_61_);}
	.st68{fill:url(#SVGID_62_);}
	.st69{fill:#ECEDEF;}
	.st70{opacity:0.1;fill:#F0F5FA;}
	.st71{fill:#D7D8DC;}
	.st72{fill:#E6E6E6;}
	.st73{opacity:0.1;fill:url(#SVGID_63_);}
	.st74{fill-rule:evenodd;clip-rule:evenodd;fill:#FFFFFF;}
	.st75{fill-rule:evenodd;clip-rule:evenodd;fill:none;stroke:#FFFFFF;stroke-width:0.25;stroke-miterlimit:10;}
	.st76{fill:none;stroke:#FFFFFF;stroke-width:0.5;stroke-miterlimit:10;}
	.st77{opacity:0.3;fill:none;stroke:#FFFFFF;stroke-width:0.5;stroke-miterlimit:10;}
	.st78{fill:#A4CD3C;}
	.st79{fill:#85A939;}
	.st80{fill:#606060;}
	.st81{fill:#CACACA;}
	.st82{fill:url(#SVGID_64_);}
	.st83{fill:#FFEA00;}
	.st84{fill:none;stroke:#FFEA00;stroke-miterlimit:10;}
	.st85{clip-path:url(#SVGID_68_);}
	.st86{fill:#F0F0F0;}
	.st87{clip-path:url(#SVGID_72_);}
	.st88{clip-path:url(#SVGID_78_);fill:#FFFFFF;}
	.st89{fill:url(#SVGID_79_);}
	.st90{fill:url(#SVGID_80_);}
	.st91{fill:url(#SVGID_81_);}
	.st92{fill:url(#SVGID_82_);}
	.st93{fill:url(#SVGID_83_);}
	.st94{fill:url(#SVGID_84_);}
	.st95{fill:url(#SVGID_85_);}
	.st96{fill:url(#SVGID_86_);}
	.st97{fill:#808080;}
	.st98{fill:url(#SVGID_89_);}
	.st99{fill:none;stroke:#523788;stroke-width:0.75;stroke-miterlimit:10;}
	.st100{fill:none;stroke:#523788;stroke-miterlimit:10;}
	.st101{opacity:0.9;}
	.st102{fill:none;stroke:url(#SVGID_90_);stroke-miterlimit:10;}
	.st103{fill:none;stroke:url(#SVGID_91_);stroke-miterlimit:10;}
	.st104{fill:none;stroke:url(#SVGID_92_);stroke-miterlimit:10;}
	.st105{fill:none;stroke:url(#SVGID_93_);stroke-miterlimit:10;}
	.st106{fill:none;stroke:url(#SVGID_94_);stroke-miterlimit:10;}
	.st107{fill:none;stroke:url(#SVGID_95_);stroke-miterlimit:10;}
	.st108{fill:none;stroke:url(#SVGID_96_);stroke-miterlimit:10;}
	.st109{fill:none;stroke:url(#SVGID_97_);stroke-miterlimit:10;}
	.st110{opacity:0.9;fill:url(#SVGID_98_);}
	.st111{fill:#BBA1BF;}
	.st112{opacity:0.9;fill:url(#SVGID_99_);}
	.st113{opacity:0.8;}
</style>
<g>
	<linearGradient id="SVGID_1_" gradientUnits="userSpaceOnUse" x1="-1.818989e-12" y1="28.2678" x2="35.3418" y2="28.2678">
		<stop  offset="0.3305" style="stop-color:#7C3F80"/>
		<stop  offset="0.5689" style="stop-color:#6C3879"/>
		<stop  offset="1" style="stop-color:#452667"/>
	</linearGradient>
	<path class="st6" d="M34.87,17.02L20.08,6.37C19.58,6,18.87,6.12,18.51,6.62c-0.36,0.51-0.25,1.21,0.26,1.58l13.88,9.99l-7.76,10.8
		l-5.31-3.82c-0.04-0.5-0.05-1-0.05-1.5c0-0.44,0.04-0.96,0.08-1.51c0.14-1.88,0.32-4.23-0.96-5.81c-1.33-1.65-3.72-1.95-5.44-0.69
		c-1.07,0.78-1.67,2.04-1.62,3.37l0.02,0.41L3.32,13.5l7.73-10.76l0.29,0.22c0.49,0.38,1.2,0.29,1.58-0.2
		c0.38-0.49,0.29-1.2-0.2-1.58l-1.21-0.94c-0.5-0.39-1.24-0.28-1.61,0.23L0.83,13.1c-0.36,0.51-0.25,1.21,0.26,1.58l5,3.59
		l-0.92,1.6c-0.19,0.3-3.5,5.71-3.53,5.75c-1.45,2.36-1.97,5.26-1.43,7.96c0.46,2.32,1.76,4.16,3.01,5.93
		c0.52,0.74,1.01,1.44,1.45,2.17c0.77,1.31,1.39,2.7,1.84,4.15l0.59,1.9H7.02c-0.62,0-1.13,0.51-1.13,1.13v6.54
		c0,0.62,0.51,1.13,1.13,1.13h13.85c0.62,0,1.13-0.51,1.13-1.13v-6.54c0-0.62-0.51-1.13-1.13-1.13h-0.65l0.69-3.8
		c0.15-0.81,0.27-1.65,0.36-2.47c0.37-3.44,0.22-6.91-0.45-10.31l-0.08-0.41c-0.01-0.05-0.02-0.11-0.04-0.16
		c-0.27-0.76-0.49-1.53-0.66-2.31l4.45,3.2c0.5,0.36,1.22,0.24,1.58-0.26l9.08-12.63C35.49,18.09,35.38,17.38,34.87,17.02z
		 M11.87,26.12l-0.74-0.8l0.65-1.3L11.87,26.12z M19.74,54.28H8.15v-4.28h11.59V54.28z M9.46,47.73l-0.8-2.57
		c-0.5-1.62-1.19-3.18-2.06-4.63c-0.48-0.8-1.02-1.57-1.54-2.32c-1.17-1.66-2.27-3.23-2.64-5.08c-0.43-2.15-0.01-4.46,1.14-6.33
		c0-0.01,0-0.01,3.54-5.77c0.01-0.01,0.01-0.02,0.02-0.03l0.81-1.41l2.61,1.87L8.77,25l-1.26,2.47C7.22,28.03,7.44,28.71,8,28.99
		c0.16,0.08,0.34,0.12,0.51,0.12c0.41,0,0.81-0.23,1.01-0.62l0.52-1.03l1.95,2.12v2.52c0,0.62,0.51,1.13,1.13,1.13
		s1.13-0.51,1.13-1.13v-2.96c0-0.01,0-0.01,0-0.02c0-0.01,0-0.02,0-0.03l-0.42-10.16c-0.02-0.57,0.24-1.11,0.7-1.45
		c0.74-0.54,1.77-0.42,2.34,0.29c0.72,0.88,0.58,2.65,0.46,4.22c-0.04,0.59-0.09,1.15-0.09,1.68c0,2.59,0.43,5.14,1.28,7.59
		l0.06,0.33c0.62,3.18,0.76,6.42,0.42,9.63c-0.08,0.77-0.2,1.55-0.33,2.31l-0.76,4.2L9.46,47.73L9.46,47.73z"/>
	<linearGradient id="SVGID_2_" gradientUnits="userSpaceOnUse" x1="8.1069" y1="10.5127" x2="15.0591" y2="10.5127">
		<stop  offset="0.3305" style="stop-color:#7C3F80"/>
		<stop  offset="0.5689" style="stop-color:#6C3879"/>
		<stop  offset="1" style="stop-color:#452667"/>
	</linearGradient>
	<path class="st8" d="M8.11,10.51c0,1.92,1.56,3.48,3.48,3.48s3.48-1.56,3.48-3.48c0-1.92-1.56-3.48-3.48-3.48S8.11,8.6,8.11,10.51z
		 M12.8,10.51c0,0.67-0.55,1.22-1.22,1.22s-1.22-0.55-1.22-1.22s0.55-1.22,1.22-1.22S12.8,9.84,12.8,10.51z"/>
	<linearGradient id="SVGID_3_" gradientUnits="userSpaceOnUse" x1="16.4518" y1="15.6679" x2="28.5725" y2="15.6679">
		<stop  offset="0.3305" style="stop-color:#7C3F80"/>
		<stop  offset="0.5689" style="stop-color:#6C3879"/>
		<stop  offset="1" style="stop-color:#452667"/>
	</linearGradient>
	<path class="st9" d="M16.65,11.6c-0.36,0.51-0.23,1.22,0.28,1.57l9.86,6.85c0.2,0.14,0.42,0.2,0.64,0.2c0.36,0,0.71-0.17,0.93-0.48
		c0.36-0.51,0.23-1.22-0.28-1.57l-9.86-6.85C17.71,10.96,17.01,11.08,16.65,11.6z"/>
	<linearGradient id="SVGID_4_" gradientUnits="userSpaceOnUse" x1="21.3676" y1="20.8061" x2="26.5904" y2="20.8061">
		<stop  offset="0.3305" style="stop-color:#7C3F80"/>
		<stop  offset="0.5689" style="stop-color:#6C3879"/>
		<stop  offset="1" style="stop-color:#452667"/>
	</linearGradient>
	<path class="st10" d="M23.14,18.85c-0.51-0.36-1.22-0.23-1.57,0.28c-0.36,0.51-0.23,1.22,0.28,1.57l2.96,2.06
		c0.2,0.14,0.42,0.2,0.64,0.2c0.36,0,0.71-0.17,0.93-0.48c0.36-0.51,0.23-1.22-0.28-1.57L23.14,18.85z"/>
	<linearGradient id="SVGID_5_" gradientUnits="userSpaceOnUse" x1="14.6133" y1="4.6069" x2="16.8698" y2="4.6069">
		<stop  offset="0.3305" style="stop-color:#7C3F80"/>
		<stop  offset="0.5689" style="stop-color:#6C3879"/>
		<stop  offset="1" style="stop-color:#452667"/>
	</linearGradient>
	<path class="st11" d="M15.74,5.74c0.47,0,0.9-0.3,1.06-0.75c0.16-0.44,0.02-0.95-0.34-1.25c-0.36-0.3-0.89-0.34-1.29-0.1
		c-0.41,0.24-0.62,0.72-0.53,1.18C14.73,5.34,15.21,5.74,15.74,5.74z"/>
</g>
</svg>
