<svg xmlns="http://www.w3.org/2000/svg" width="92.881" height="71.402" viewBox="0 0 92.881 71.402"><defs><style>.a{fill:#6b2378;}</style></defs><path class="a" d="M92.877,123.939c0-.014,0-.027,0-.041a1.331,1.331,0,0,0-.024-.158l0-.015a1.319,1.319,0,0,0-.04-.139l-.013-.036q-.023-.062-.052-.12c0-.007-.005-.014-.009-.021l-7.277-14.353V61.835A2.637,2.637,0,0,0,82.823,59.2H10.057a2.637,2.637,0,0,0-2.634,2.634v47.22L.147,123.408c0,.007-.006.014-.009.021-.019.039-.036.079-.052.12l-.013.036a1.382,1.382,0,0,0-.04.14l0,.015a1.341,1.341,0,0,0-.024.159c0,.013,0,.027,0,.04s0,.056,0,.085v3.451A3.132,3.132,0,0,0,3.128,130.6H89.753a3.132,3.132,0,0,0,3.128-3.128v-3.451C92.881,123.995,92.879,123.967,92.877,123.939ZM10.145,61.922H82.736v46.1H10.145ZM9.62,110.741H83.261l6.044,11.922H59.413l-1.5-5.44a2.569,2.569,0,0,0-2.47-1.881h-18a2.569,2.569,0,0,0-2.47,1.881l-1.5,5.44H3.576Zm46.97,11.922h-20.3l1.269-4.6H55.321Zm33.57,4.812a.408.408,0,0,1-.407.407H3.128a.408.408,0,0,1-.407-.407v-2.091H90.16Z" transform="translate(0 -59.201)"/><g transform="translate(13.047 28.038)"><g transform="translate(0 0)"><path class="a" d="M137.349,213.756a1.36,1.36,0,0,0-1.361,1.361v13.8H74.644v-13.8a1.361,1.361,0,1,0-2.721,0V229.5a2.136,2.136,0,0,0,2.134,2.134h62.519a2.136,2.136,0,0,0,2.134-2.134V215.117A1.361,1.361,0,0,0,137.349,213.756Z" transform="translate(-71.923 -213.756)"/></g></g><g transform="translate(13.047 5.624)"><g transform="translate(0 0)"><path class="a" d="M136.576,90.2H74.057a2.136,2.136,0,0,0-2.134,2.134v14.385a1.361,1.361,0,1,0,2.721,0v-13.8h61.344v13.8a1.361,1.361,0,1,0,2.721,0V92.337A2.136,2.136,0,0,0,136.576,90.2Z" transform="translate(-71.923 -90.203)"/></g></g></svg>