<svg xmlns="http://www.w3.org/2000/svg" width="152.269" height="140.434" viewBox="0 0 152.269 140.434"><defs><style>.a{fill:#6B2378;}</style></defs><g transform="translate(-552.34 520.811)"><path class="a" d="M704.609-412.293c-.4,1.817-.729,3.653-1.206,5.45a35.583,35.583,0,0,1-30.091,26.086,35.592,35.592,0,0,1-39.361-28.948c-.251-1.3-.356-2.625-.539-4.017-.471-.028-.9-.075-1.338-.076-2.813-.007-5.625,0-8.472,0-1.241,12.282-6.831,21.823-17.294,28.205a33.815,33.815,0,0,1-27.259,3.953,35.6,35.6,0,0,1-24.954-45.5c6-18.641,28.073-31.189,49.951-20.839L608.5-455.6c-.3-.252-.584-.508-.887-.739-10.024-7.654-15.081-17.784-14.715-30.393.487-16.8,13.662-31.479,30.288-33.694,13.219-1.761,24.253,2.56,32.918,12.761,1.149,1.353,1.158,2.586.086,3.533s-2.41.728-3.571-.664a30.891,30.891,0,0,0-22.912-11.5c-14.619-.809-28.642,9.878-31.508,24.283-2.6,13.062,1.532,23.776,12.084,31.963.313.242.646.458.979.671a3.545,3.545,0,0,0,.521.207c.034-.484.081-.9.09-1.315a7.268,7.268,0,0,1,4.251-6.779c1.456-.737,2.931-1.437,4.381-2.186,1.185-.612,1.408-3.167.252-3.861-8.287-4.981-8.4-18.945-2.183-24.409a2.057,2.057,0,0,0,.471-1.428,9.495,9.495,0,0,1,9.449-9.76,9.513,9.513,0,0,1,9.462,9.754,2.463,2.463,0,0,0,.669,1.641c5.907,5.577,5.879,19.012-2.274,24.107a2.5,2.5,0,0,0,.242,4.012c1.323.673,2.637,1.365,3.984,1.987a7.3,7.3,0,0,1,4.524,7.193c0,.248,0,.5.024.742.008.083.084.16.193.352a27.759,27.759,0,0,0,8.079-7.514q9.62-13.434,4.311-29.133c-.063-.187-.125-.375-.189-.562-.567-1.66-.142-2.889,1.155-3.348,1.346-.475,2.494.136,3.08,1.759,4.37,12.117,2.854,23.5-4.73,33.87-2.1,2.872-5.045,5.125-7.609,7.655-.274.271-.6.49-.951.775l4.356,7.393c3.22-.968,6.263-2.224,9.428-2.777,13.907-2.43,25.433,1.926,34.56,12.662a2.214,2.214,0,0,1-.24,3.4c-1.1.852-2.38.6-3.471-.741A29.961,29.961,0,0,0,674.472-446.7a30.82,30.82,0,0,0-35.514,22.819c-2.964,11.995.312,22.384,9.31,30.911.358.34.757.638,1.148.941a2.73,2.73,0,0,0,.519.219c.05-.8.088-1.518.142-2.234a6.986,6.986,0,0,1,4.736-6.4c1.929-.765,3.867-1.511,5.758-2.361.544-.244,1.26-.769,1.334-1.252.144-.939.377-1.973-.832-2.721-8.059-4.987-7.923-18.4-2.319-23.9a14.372,14.372,0,0,1,15.442-3.358,14.347,14.347,0,0,1,9.021,12.985c.138,4.508-.534,8.7-3.764,12.108a9.781,9.781,0,0,1-2.352,2.021c-1.361.721-1.173,1.894-.972,2.929.1.5.919.972,1.51,1.242,1.615.739,3.275,1.38,4.929,2.03,3.913,1.538,5.36,3.607,5.384,7.742,0,.39,0,.78,0,1.541,1.06-.92,1.957-1.584,2.719-2.378,9.046-9.425,11.606-20.363,7.588-32.814-.106-.328-.27-.639-.365-.97a2.323,2.323,0,0,1,1.393-3.027,2.185,2.185,0,0,1,2.836,1.487c.817,2.685,1.465,5.422,2.179,8.138.111.42.206.845.308,1.267ZM568.947-391.539a7.558,7.558,0,0,1,5.2-6.7c1.8-.675,3.6-1.383,5.355-2.17.544-.244,1.279-.746,1.351-1.217.15-.986.337-2.01-.885-2.829-3.265-2.187-5.535-5.27-5.862-9.219a88.178,88.178,0,0,1-.17-13.193,8.683,8.683,0,0,1,8.225-8.01c5.832-.278,11.684-.18,17.527-.157,1.751.007,2.451.9,2.461,2.842.024,4.855-.079,9.712.033,14.565.13,5.665-1.773,10.241-6.56,13.486a2.254,2.254,0,0,0,.412,3.615c2.1.854,4.227,1.665,6.333,2.518a7.133,7.133,0,0,1,4.322,4.777,15.741,15.741,0,0,1,.3,1.615,7.165,7.165,0,0,0,.635-.408,30.569,30.569,0,0,0,11.346-22.039,32.033,32.033,0,0,0-2-13.4,3.2,3.2,0,0,1,.455-2.531,2.249,2.249,0,0,1,2.08-.576,3.226,3.226,0,0,1,1.711,1.829c.995,3.341,1.8,6.737,2.714,10.257h9.5c1.04-11.519,6.3-20.474,15.61-27.172l-4.511-7.687c-10.76,5.036-21.4,5.051-32.079-.011l-4.368,7.467c2.44,2.333,4.782,4.46,6.989,6.719,1.65,1.689,1.762,3.079.615,4.123-1.2,1.093-2.461.684-4.084-1.164-7.752-8.824-17.556-12.4-29.043-10.46a30.935,30.935,0,0,0-24.8,37.85A30.563,30.563,0,0,0,568.947-391.539Zm90.445-28.2c0,.445-.011.89,0,1.335a9.156,9.156,0,0,0,5.518,8.6,9.193,9.193,0,0,0,10.272-1.292c3.377-2.744,3.848-6.535,3.4-10.507-.714-6.361-6.383-10.225-12.325-8.518C661.891-428.857,659.39-425.08,659.392-419.735Zm2.53,21.321c-1.957.787-3.837,1.521-5.7,2.3a2.415,2.415,0,0,0-1.589,2.436c.014,1.236.074,2.48-.03,3.708a1.852,1.852,0,0,0,1.335,2.105,31.048,31.048,0,0,0,24.2.809c3.342-1.225,3.326-1.269,3.325-4.9a5.286,5.286,0,0,0-.047-1.767c-.3-.786-.662-1.811-1.306-2.149-1.9-1-3.946-1.7-6.015-2.558-1.135,3.885-3.461,6.118-7.508,6.033C665.477-392.467,663.275-394.477,661.922-398.414Zm-83.592-22.448c0,1.848-.113,3.536.021,5.2a9.625,9.625,0,0,0,9.318,9.216,9.468,9.468,0,0,0,9.726-7.866,39.293,39.293,0,0,0,.061-6.555Zm16.692,24.815c-.874,3.442-2.866,5.671-6.306,5.982-4.239.383-6.668-2.044-7.843-5.953-1.96.777-3.8,1.482-5.62,2.234-1.782.737-1.629,2.318-1.771,3.875-.132,1.436.771,1.752,1.716,2.162a30.889,30.889,0,0,0,25.566-.011c.823-.357,1.782-.554,1.635-1.9-.167-1.532.344-3.27-1.6-4.068C598.925-394.491,597.048-395.233,595.022-396.047Zm40.451-68.792c-1.223,3.678-3.567,5.739-6.823,5.717-3.776-.026-6.086-2.131-7.148-5.741A32.73,32.73,0,0,0,617.868-463a3.1,3.1,0,0,0-1.269,1.834,17.925,17.925,0,0,0-.057,4,1.482,1.482,0,0,0,.863.966,30.638,30.638,0,0,0,22.16.021,1.564,1.564,0,0,0,.888-1.1c0-5.616.566-4.773-3.807-7.021C636.3-464.484,635.929-464.632,635.473-464.839Zm-15.907-26.044c-.647,1.108-.76,1.893-.682,5.486.131,6.018,4.436,10.048,10.446,9.776a9.294,9.294,0,0,0,8.612-9.741h-2.174c-.878,2.09-1.673,2.687-3.121,2.318-1.239-.315-1.745-1.346-1.594-2.946Zm-22.021,60.43c-4.842,0-9.54-.022-14.237.008-2.86.018-4.6,1.716-4.9,4.794h19.142Zm24.731-64.535a31.792,31.792,0,0,0,15.564,5.012,9.481,9.481,0,0,0-5.69-6.506C628.713-497.881,625.51-497.332,622.276-494.988Zm44.272,90.62c0,1.719-.06,3.486.021,5.246a2.457,2.457,0,0,0,2.372,2.22,2.345,2.345,0,0,0,2.465-2.085c.146-1.791.037-3.6.037-5.381Zm-81.012,2.384c0,1.8-.1,3.576.035,5.337a2.315,2.315,0,0,0,2.455,2.119,2.3,2.3,0,0,0,2.369-2.06c.155-1.809.039-3.641.039-5.4Zm45.4-69.086h-4.879c0,1.759-.051,3.43.016,5.1a2.276,2.276,0,0,0,2.392,2.282,2.311,2.311,0,0,0,2.458-2.374C630.985-467.69,630.94-469.316,630.94-471.07Zm1.913-30.417a4.685,4.685,0,0,0-4.741-2.868c-2.048.225-3.553,1.427-3.837,2.868Z"/><path class="a" d="M925.092-182.536a2.346,2.346,0,0,1-2.216,2.314,2.283,2.283,0,0,1-2.269-2.232,2.134,2.134,0,0,1,2.181-2.266A2.246,2.246,0,0,1,925.092-182.536Z" transform="translate(-258.562 -235.972)"/><path class="a" d="M954.771-180.211a2.291,2.291,0,0,1-2.243-2.274,2.14,2.14,0,0,1,2.224-2.24,2.264,2.264,0,0,1,2.281,2.227A2.352,2.352,0,0,1,954.771-180.211Z" transform="translate(-280.974 -235.968)"/><path class="a" d="M650.681-172.226a2.358,2.358,0,0,1-2.279-2.258,2.262,2.262,0,0,1,2.255-2.237,2.154,2.154,0,0,1,2.242,2.215A2.275,2.275,0,0,1,650.681-172.226Z" transform="translate(-67.445 -241.588)"/><path class="a" d="M684.839-174.534a2.289,2.289,0,0,1-2.2,2.319,2.339,2.339,0,0,1-2.31-2.236,2.268,2.268,0,0,1,2.234-2.275A2.144,2.144,0,0,1,684.839-174.534Z" transform="translate(-89.861 -241.584)"/><path class="a" d="M786.749-404.431a2.27,2.27,0,0,1-2.348-2.157,2.358,2.358,0,0,1,2.209-2.333,2.4,2.4,0,0,1,2.357,2.2A2.27,2.27,0,0,1,786.749-404.431Z" transform="translate(-162.931 -78.559)"/></g></svg>