<svg id="plus-button" xmlns="http://www.w3.org/2000/svg" width="31.058" height="31.059" viewBox="0 0 31.058 31.059">
  <g id="Group_6" data-name="Group 6">
    <path id="Path_6" data-name="Path 6" d="M15.529,31.059a15.53,15.53,0,1,1,15.529-15.53A15.547,15.547,0,0,1,15.529,31.059Zm0-29.285A13.755,13.755,0,1,0,29.283,15.529,13.771,13.771,0,0,0,15.529,1.774Z" fill="#fff"/>
  </g>
  <g id="Group_7" data-name="Group 7">
    <path id="Path_7" data-name="Path 7" d="M21.652,16.416H9.406a.887.887,0,1,1,0-1.775H21.652a.887.887,0,0,1,0,1.775Z" fill="#fff"/>
  </g>
  <g id="Group_8" data-name="Group 8">
    <path id="Path_8" data-name="Path 8" d="M15.529,22.539a.888.888,0,0,1-.888-.887V9.406a.887.887,0,1,1,1.775,0V21.652A.886.886,0,0,1,15.529,22.539Z" fill="#fff"/>
  </g>
</svg>
