<svg xmlns="http://www.w3.org/2000/svg" width="140.442" height="140.442" viewBox="0 0 140.442 140.442"><defs><style>.a{fill:#fff;}</style></defs><path class="a" d="M335.425,312.266V295.157l-6.553-1.675c-.045-.111-.091-.221-.138-.331l3.45-5.814-12.1-12.1-5.815,3.45-.331-.138L312.266,272H295.157l-1.675,6.553c-.111.045-.221.091-.331.138l-5.814-3.45-12.1,12.1,3.45,5.814c-.048.112-.093.222-.138.331L272,295.16v17.108l6.553,1.675c.045.111.091.221.138.331l-3.45,5.814,12.1,12.1,5.814-3.45.331.138,1.675,6.551h17.108l1.675-6.553c.111-.045.221-.091.331-.138l5.814,3.45,12.1-12.1-3.45-5.815c.048-.112.093-.222.138-.331Zm-8.931,7.106-7.122,7.122-4.841-2.872-1.089.521a22.636,22.636,0,0,1-2.159.895l-1.141.4-1.39,5.453H298.677l-1.39-5.453-1.141-.4a21.344,21.344,0,0,1-2.159-.895l-1.089-.521-4.841,2.872-7.122-7.122,2.872-4.841-.521-1.089a22.644,22.644,0,0,1-.895-2.159l-.4-1.141-5.455-1.39V298.677l5.453-1.39.4-1.141a21.358,21.358,0,0,1,.895-2.159l.521-1.089-2.872-4.841,7.122-7.122,4.841,2.872,1.089-.521a22.64,22.64,0,0,1,2.159-.895l1.141-.4,1.39-5.455h10.074l1.39,5.453,1.141.4a21.356,21.356,0,0,1,2.159.895l1.089.521,4.841-2.872,7.122,7.122-2.872,4.841.521,1.089a22.648,22.648,0,0,1,.895,2.159l.4,1.141,5.455,1.39v10.074l-5.453,1.39-.4,1.141a21.342,21.342,0,0,1-.895,2.159l-.521,1.089Zm0,0" transform="translate(-194.983 -194.983)"/><path class="a" d="M338.122,320a18.122,18.122,0,1,0,18.121,18.122A18.142,18.142,0,0,0,338.122,320Zm0,31.713a13.591,13.591,0,1,1,13.591-13.591A13.6,13.6,0,0,1,338.122,351.713Zm0,0" transform="translate(-229.392 -229.392)"/><path class="a" d="M361.061,352a9.061,9.061,0,1,0,9.061,9.061A9.07,9.07,0,0,0,361.061,352Zm0,13.591a4.53,4.53,0,1,1,4.53-4.53A4.535,4.535,0,0,1,361.061,365.591Zm0,0" transform="translate(-252.332 -252.332)"/><path class="a" d="M166.328,38.355a13.614,13.614,0,0,0,3.794,5.726V46L159.351,50.04A11.375,11.375,0,0,0,152,60.644V72.486h54.365V60.644a11.382,11.382,0,0,0-7.349-10.606L188.243,46V44.081a13.586,13.586,0,0,0,3.794-5.726,9.058,9.058,0,0,0,7.532-8.907V20.387a20.387,20.387,0,1,0-40.773,0v9.061A9.058,9.058,0,0,0,166.328,38.355Zm17.385,8.587-4.53,7.55-4.53-7.55v-.166a13.337,13.337,0,0,0,9.061,0Zm-12.3,3.411,4.567,7.609-4.537,2.267-2.931-8.789Zm30.42,10.291v7.312h-45.3V60.644a6.826,6.826,0,0,1,4.41-6.363l3.33-1.248L168.8,66.62l10.384-5.192,10.384,5.192,4.528-13.587,3.333,1.25A6.823,6.823,0,0,1,201.834,60.644Zm-11.983-9.2-2.931,8.791-4.537-2.267,4.567-7.611Zm-10.669-8.4a9.07,9.07,0,0,1-9.061-9.061V24.763a17.535,17.535,0,0,0,9.061-3.616,17.516,17.516,0,0,0,9.061,3.616v9.215A9.07,9.07,0,0,1,179.182,43.039Zm13.591-9.69v-7.8a4.49,4.49,0,0,1,0,7.8ZM179.182,4.53a15.876,15.876,0,0,1,15.856,15.856v1.26a8.962,8.962,0,0,0-4.53-1.26h-.389a13.109,13.109,0,0,1-9.335-3.867l-1.6-1.6-1.6,1.6a13.112,13.112,0,0,1-9.335,3.867h-.389a8.962,8.962,0,0,0-4.53,1.26v-1.26A15.876,15.876,0,0,1,179.182,4.53ZM165.591,25.546v7.8a4.49,4.49,0,0,1,0-7.8Zm0,0" transform="translate(-108.961)"/><path class="a" d="M0,346.9H45.3V288H0ZM4.53,292.53H40.773v49.834H4.53Zm0,0" transform="translate(0 -206.453)"/><path class="a" d="M32,320H59.182v4.53H32Zm0,0" transform="translate(-22.939 -229.392)"/><path class="a" d="M32,352h4.53v4.53H32Zm0,0" transform="translate(-22.939 -252.332)"/><path class="a" d="M64,352H82.122v4.53H64Zm0,0" transform="translate(-45.878 -252.332)"/><path class="a" d="M32,384H59.182v4.53H32Zm0,0" transform="translate(-22.939 -275.271)"/><path class="a" d="M32,416H59.182v4.53H32Zm0,0" transform="translate(-22.939 -298.21)"/><path class="a" d="M112,448h4.53v4.53H112Zm0,0" transform="translate(-80.287 -321.149)"/><path class="a" d="M32,448H50.122v4.53H32Zm0,0" transform="translate(-22.939 -321.149)"/><path class="a" d="M178.553,349.547l-3.2-3.2-10.662,10.662,10.662,10.662,3.2-3.2-5.194-5.194h17.184v-4.53H173.359Zm0,0" transform="translate(-118.056 -248.277)"/><path class="a" d="M76.53,89.536A2.268,2.268,0,0,1,78.8,87.271H89.184L83.99,92.465l3.2,3.2L97.855,85.006,87.193,74.344l-3.2,3.2,5.194,5.194H78.8a6.8,6.8,0,0,0-6.8,6.8V130.31h4.53Zm0,0" transform="translate(-51.613 -53.293)"/><path class="a" d="M349.591,110.8v28.51l-5.194-5.194-3.2,3.2,10.662,10.662,10.662-10.662-3.2-3.2-5.194,5.194V110.8a6.8,6.8,0,0,0-6.8-6.8H336v4.53h11.326A2.268,2.268,0,0,1,349.591,110.8Zm0,0" transform="translate(-240.862 -74.553)"/></svg>