<?xml version="1.0" encoding="utf-8"?>
<!-- Generator: Adobe Illustrator 23.0.2, SVG Export Plug-In . SVG Version: 6.00 Build 0)  -->
<svg version="1.1" id="Capa_1" xmlns="http://www.w3.org/2000/svg" xmlns:xlink="http://www.w3.org/1999/xlink" x="0px" y="0px"
	 viewBox="0 0 16.21 35.78" style="enable-background:new 0 0 16.21 35.78;" xml:space="preserve">
<style type="text/css">
	.st0{opacity:0.4;}
	.st1{opacity:0.3;}
	.st2{fill:#523788;}
	.st3{fill:#F4F4F4;}
	.st4{fill:#979797;}
	.st5{fill:none;stroke:#979797;stroke-width:0.25;stroke-miterlimit:10;}
	.st6{fill:url(#SVGID_1_);}
	.st7{fill:#FFFFFF;}
	.st8{fill:url(#SVGID_2_);}
	.st9{fill:url(#SVGID_3_);}
	.st10{fill:url(#SVGID_4_);}
	.st11{fill:url(#SVGID_5_);}
	.st12{fill:url(#SVGID_6_);}
	.st13{fill:url(#SVGID_7_);}
	.st14{fill:url(#SVGID_8_);}
	.st15{fill:url(#SVGID_9_);}
	.st16{fill:url(#SVGID_10_);}
	.st17{fill:url(#SVGID_11_);}
	.st18{fill:url(#SVGID_12_);}
	.st19{fill:url(#SVGID_13_);}
	.st20{fill:url(#SVGID_14_);}
	.st21{fill:url(#SVGID_15_);}
	.st22{fill:url(#SVGID_16_);}
	.st23{fill:url(#SVGID_17_);}
	.st24{fill:url(#SVGID_18_);}
	.st25{fill:url(#SVGID_19_);}
	.st26{fill:url(#SVGID_20_);}
	.st27{fill:url(#SVGID_21_);}
	.st28{fill:url(#SVGID_22_);}
	.st29{fill:url(#SVGID_23_);}
	.st30{fill:url(#SVGID_24_);}
	.st31{fill:url(#SVGID_25_);}
	.st32{fill:url(#SVGID_26_);}
	.st33{fill:url(#SVGID_27_);}
	.st34{fill:url(#SVGID_28_);}
	.st35{fill:url(#SVGID_29_);}
	.st36{fill:url(#SVGID_30_);}
	.st37{fill:url(#SVGID_31_);}
	.st38{fill:url(#SVGID_32_);}
	.st39{fill:#ECEDEF;}
	.st40{opacity:0.1;fill:#F0F5FA;}
	.st41{fill:#D7D8DC;}
	.st42{fill:#E6E6E6;}
	.st43{opacity:0.1;fill:url(#SVGID_33_);}
	.st44{fill-rule:evenodd;clip-rule:evenodd;fill:#FFFFFF;}
	.st45{fill-rule:evenodd;clip-rule:evenodd;fill:none;stroke:#FFFFFF;stroke-width:0.25;stroke-miterlimit:10;}
	.st46{fill:none;stroke:#FFFFFF;stroke-width:0.5;stroke-miterlimit:10;}
	.st47{opacity:0.3;fill:none;stroke:#FFFFFF;stroke-width:0.5;stroke-miterlimit:10;}
	.st48{fill:#A4CD3C;}
	.st49{fill:#85A939;}
	.st50{fill:#606060;}
	.st51{fill:#CACACA;}
	.st52{fill:url(#SVGID_34_);}
	.st53{fill:#FFEA00;}
	.st54{fill:none;stroke:#FFEA00;stroke-miterlimit:10;}
	.st55{clip-path:url(#SVGID_38_);}
	.st56{fill:#F0F0F0;}
	.st57{clip-path:url(#SVGID_42_);}
	.st58{clip-path:url(#SVGID_48_);fill:#FFFFFF;}
	.st59{fill:url(#SVGID_49_);}
	.st60{fill:url(#SVGID_50_);}
	.st61{fill:url(#SVGID_51_);}
	.st62{fill:url(#SVGID_52_);}
	.st63{fill:url(#SVGID_53_);}
	.st64{fill:url(#SVGID_54_);}
	.st65{fill:url(#SVGID_55_);}
	.st66{fill:url(#SVGID_56_);}
	.st67{fill:url(#SVGID_57_);}
	.st68{fill:#808080;}
	.st69{fill:url(#SVGID_60_);}
	.st70{fill:none;stroke:#523788;stroke-width:0.75;stroke-miterlimit:10;}
	.st71{fill:none;stroke:#523788;stroke-miterlimit:10;}
	.st72{opacity:0.9;}
	.st73{fill:none;stroke:url(#SVGID_61_);stroke-miterlimit:10;}
	.st74{fill:none;stroke:url(#SVGID_62_);stroke-miterlimit:10;}
	.st75{fill:none;stroke:url(#SVGID_63_);stroke-miterlimit:10;}
	.st76{fill:none;stroke:url(#SVGID_64_);stroke-miterlimit:10;}
	.st77{fill:none;stroke:url(#SVGID_65_);stroke-miterlimit:10;}
	.st78{fill:none;stroke:url(#SVGID_66_);stroke-miterlimit:10;}
	.st79{fill:none;stroke:url(#SVGID_67_);stroke-miterlimit:10;}
	.st80{fill:none;stroke:url(#SVGID_68_);stroke-miterlimit:10;}
	.st81{opacity:0.9;fill:url(#SVGID_69_);}
	.st82{fill:#BBA1BF;}
	.st83{opacity:0.9;fill:url(#SVGID_70_);}
	.st84{opacity:0.8;}
</style>
<g>
	<g>
		<g>
			<path class="st68" d="M8.1,35.78c-0.13,0-0.25-0.04-0.35-0.13l-5.3-4.29c-0.24-0.2-0.28-0.55-0.08-0.79
				c0.19-0.24,0.55-0.28,0.79-0.08l4.95,4l4.95-4c0.24-0.2,0.6-0.16,0.79,0.08c0.2,0.24,0.16,0.6-0.08,0.79l-5.3,4.29
				C8.35,35.74,8.23,35.78,8.1,35.78z"/>
		</g>
	</g>
	<g>
		<path class="st68" d="M8.1,25.9c-4.47,0-8.1-3.63-8.1-8.1V8.1C0,3.63,3.63,0,8.1,0s8.1,3.63,8.1,8.1v9.69
			C16.21,22.26,12.57,25.9,8.1,25.9z M8.1,1.13c-3.85,0-6.98,3.13-6.98,6.98v9.69c0,3.85,3.13,6.98,6.98,6.98s6.98-3.13,6.98-6.98
			V8.1C15.08,4.26,11.95,1.13,8.1,1.13z"/>
	</g>
	<g>
		<path class="st68" d="M8.1,9.82L8.1,9.82c-0.62,0-1.12-0.5-1.12-1.12V6.03c0-0.62,0.5-1.12,1.12-1.12l0,0
			c0.62,0,1.12,0.5,1.12,1.12V8.7C9.22,9.32,8.72,9.82,8.1,9.82z"/>
	</g>
</g>
</svg>
