<?xml version="1.0" encoding="utf-8"?>
<!-- Generator: Adobe Illustrator 23.0.2, SVG Export Plug-In . SVG Version: 6.00 Build 0)  -->
<svg version="1.1" id="Capa_1" xmlns="http://www.w3.org/2000/svg" xmlns:xlink="http://www.w3.org/1999/xlink" x="0px" y="0px"
	 viewBox="0 0 8.66 10.31" style="enable-background:new 0 0 8.66 10.31;" xml:space="preserve">
<style type="text/css">
	.st0{opacity:0.4;}
	.st1{opacity:0.3;}
	.st2{fill:#523788;}
	.st3{fill:#F4F4F4;}
	.st4{fill:#979797;}
	.st5{fill:none;stroke:#979797;stroke-width:0.25;stroke-miterlimit:10;}
	.st6{fill:url(#SVGID_1_);}
	.st7{fill:#FFFFFF;}
	.st8{fill:url(#SVGID_2_);}
	.st9{fill:url(#SVGID_3_);}
	.st10{fill:url(#SVGID_4_);}
	.st11{fill:url(#SVGID_5_);}
	.st12{fill:url(#SVGID_6_);}
	.st13{fill:url(#SVGID_7_);}
	.st14{fill:url(#SVGID_8_);}
	.st15{fill:url(#SVGID_9_);}
	.st16{fill:url(#SVGID_10_);}
	.st17{fill:url(#SVGID_11_);}
	.st18{fill:url(#SVGID_12_);}
	.st19{fill:url(#SVGID_13_);}
	.st20{fill:url(#SVGID_14_);}
	.st21{fill:url(#SVGID_15_);}
	.st22{fill:url(#SVGID_16_);}
	.st23{fill:url(#SVGID_17_);}
	.st24{fill:url(#SVGID_18_);}
	.st25{fill:url(#SVGID_19_);}
	.st26{fill:url(#SVGID_20_);}
	.st27{fill:url(#SVGID_21_);}
	.st28{fill:url(#SVGID_22_);}
	.st29{fill:url(#SVGID_23_);}
	.st30{fill:url(#SVGID_24_);}
	.st31{fill:url(#SVGID_25_);}
	.st32{fill:url(#SVGID_26_);}
	.st33{fill:url(#SVGID_27_);}
	.st34{fill:url(#SVGID_28_);}
	.st35{fill:url(#SVGID_29_);}
	.st36{fill:url(#SVGID_30_);}
	.st37{fill:url(#SVGID_31_);}
	.st38{fill:url(#SVGID_32_);}
	.st39{fill:#ECEDEF;}
	.st40{opacity:0.1;fill:#F0F5FA;}
	.st41{fill:#D7D8DC;}
	.st42{fill:#E6E6E6;}
	.st43{opacity:0.1;fill:url(#SVGID_33_);}
	.st44{fill-rule:evenodd;clip-rule:evenodd;fill:#FFFFFF;}
	.st45{fill-rule:evenodd;clip-rule:evenodd;fill:none;stroke:#FFFFFF;stroke-width:0.25;stroke-miterlimit:10;}
	.st46{fill:none;stroke:#FFFFFF;stroke-width:0.5;stroke-miterlimit:10;}
	.st47{opacity:0.3;fill:none;stroke:#FFFFFF;stroke-width:0.5;stroke-miterlimit:10;}
	.st48{fill:#A4CD3C;}
	.st49{fill:#85A939;}
	.st50{fill:#606060;}
	.st51{fill:#CACACA;}
	.st52{fill:url(#SVGID_34_);}
	.st53{fill:#FFEA00;}
	.st54{fill:none;stroke:#FFEA00;stroke-miterlimit:10;}
	.st55{clip-path:url(#SVGID_38_);}
	.st56{fill:#F0F0F0;}
	.st57{clip-path:url(#SVGID_42_);}
	.st58{clip-path:url(#SVGID_48_);fill:#FFFFFF;}
	.st59{fill:url(#SVGID_49_);}
	.st60{fill:url(#SVGID_50_);}
	.st61{fill:url(#SVGID_51_);}
	.st62{fill:url(#SVGID_52_);}
	.st63{fill:url(#SVGID_53_);}
	.st64{fill:url(#SVGID_54_);}
	.st65{fill:url(#SVGID_55_);}
	.st66{fill:url(#SVGID_56_);}
	.st67{fill:url(#SVGID_57_);}
	.st68{fill:#808080;}
	.st69{fill:url(#SVGID_60_);}
	.st70{fill:none;stroke:#523788;stroke-width:0.75;stroke-miterlimit:10;}
	.st71{fill:none;stroke:#523788;stroke-miterlimit:10;}
	.st72{opacity:0.9;}
	.st73{fill:none;stroke:url(#SVGID_61_);stroke-miterlimit:10;}
	.st74{fill:none;stroke:url(#SVGID_62_);stroke-miterlimit:10;}
	.st75{fill:none;stroke:url(#SVGID_63_);stroke-miterlimit:10;}
	.st76{fill:none;stroke:url(#SVGID_64_);stroke-miterlimit:10;}
	.st77{fill:none;stroke:url(#SVGID_65_);stroke-miterlimit:10;}
	.st78{fill:none;stroke:url(#SVGID_66_);stroke-miterlimit:10;}
	.st79{fill:none;stroke:url(#SVGID_67_);stroke-miterlimit:10;}
	.st80{fill:none;stroke:url(#SVGID_68_);stroke-miterlimit:10;}
	.st81{opacity:0.9;fill:url(#SVGID_69_);}
	.st82{fill:#BBA1BF;}
	.st83{opacity:0.9;fill:url(#SVGID_70_);}
	.st84{opacity:0.8;}
</style>
<g>
	<path class="st68" d="M8.65,2.65c-0.01-0.28-0.01-0.54-0.01-0.8c0-0.2-0.16-0.36-0.36-0.36c-1.54,0-2.72-0.44-3.7-1.4
		c-0.14-0.14-0.36-0.14-0.5,0C3.1,1.05,1.92,1.5,0.38,1.5c-0.2,0-0.36,0.16-0.36,0.36c0,0.25-0.01,0.52-0.01,0.8
		c-0.05,2.59-0.12,6.14,4.2,7.63c0.04,0.01,0.08,0.02,0.12,0.02c0.04,0,0.08-0.01,0.12-0.02C8.77,8.79,8.7,5.24,8.65,2.65z
		 M4.33,9.56c-3.7-1.35-3.65-4.29-3.6-6.9c0-0.16,0.01-0.31,0.01-0.46c1.44-0.06,2.6-0.5,3.59-1.36c0.99,0.86,2.14,1.3,3.59,1.36
		c0,0.15,0,0.3,0.01,0.46C7.98,5.27,8.03,8.22,4.33,9.56z"/>
	<path class="st68" d="M5.57,3.9L3.83,5.64L3.09,4.9c-0.14-0.14-0.37-0.14-0.51,0c-0.14,0.14-0.14,0.37,0,0.51l1,1
		c0.07,0.07,0.16,0.11,0.26,0.11c0.09,0,0.18-0.04,0.26-0.11l2-2c0.14-0.14,0.14-0.37,0-0.51C5.94,3.76,5.71,3.76,5.57,3.9z"/>
</g>
</svg>
