<svg width="224" height="43" viewBox="0 0 224 43" fill="none" xmlns="http://www.w3.org/2000/svg">
<path d="M23.9611 13.1107C23.9276 12.2342 23.7091 11.3747 23.32 10.5887C22.9308 9.80261 22.3798 9.10774 21.7031 8.54968C19.9869 7.43416 17.9541 6.90763 15.9121 7.04968C14.0265 6.92542 12.1445 7.34172 10.4871 8.24968C9.90354 8.61669 9.42724 9.13133 9.10642 9.74154C8.7856 10.3517 8.63165 11.0359 8.66014 11.7247C8.63875 12.3118 8.75747 12.8955 9.00649 13.4277C9.2555 13.9598 9.62765 14.4249 10.0921 14.7847C11.5577 15.765 13.207 16.4376 14.9401 16.7617C17.2568 17.323 19.4608 17.873 21.5521 18.4117C23.4004 18.868 25.2068 19.4795 26.9521 20.2397C27.8238 20.627 28.6602 21.0891 29.4521 21.6207C30.2254 22.1423 30.9044 22.7916 31.4601 23.5407C32.058 24.358 32.5125 25.271 32.8041 26.2407C33.1504 27.4298 33.3152 28.6644 33.2931 29.9027C33.3455 31.8604 32.939 33.8032 32.1061 35.5757C31.3264 37.1425 30.1736 38.4938 28.7491 39.5107C27.2037 40.6013 25.4642 41.3867 23.6241 41.8247C21.5002 42.3424 19.3202 42.5946 17.1341 42.5757C14.8122 42.5991 12.4967 42.3276 10.2431 41.7677C8.3095 41.2932 6.48686 40.4464 4.87714 39.2747C3.39138 38.1773 2.18174 36.7489 1.34414 35.1027C0.450946 33.2821 -0.00904323 31.2796 0.000134688 29.2517H8.17214C8.18248 30.1997 8.41734 31.1318 8.85746 31.9715C9.29758 32.8113 9.93042 33.5347 10.7041 34.0827C12.6218 35.3532 14.8969 35.9741 17.1941 35.8537C19.2404 35.9827 21.2757 35.4676 23.0141 34.3807C23.6774 33.9126 24.2122 33.2851 24.5692 32.556C24.9263 31.8269 25.0941 31.0197 25.0571 30.2087C25.0643 29.6559 24.9715 29.1064 24.7831 28.5867C24.5693 28.0646 24.234 27.6012 23.8051 27.2347C23.2329 26.7502 22.5836 26.3649 21.8841 26.0947C20.8762 25.6982 19.8365 25.3877 18.7761 25.1667C16.2561 24.6053 14.1338 24.1143 12.4091 23.6937C10.7879 23.3101 9.20576 22.7768 7.68314 22.1007C5.70753 21.3055 3.97273 20.0101 2.64913 18.3417C1.4166 16.5572 0.805188 14.4169 0.909135 12.2507C0.888575 10.5566 1.19905 8.87477 1.82314 7.29968C2.42974 5.80602 3.38257 4.47787 4.60314 3.42468C5.96029 2.2785 7.53666 1.42074 9.23613 0.903676C11.3391 0.266267 13.5291 -0.0374214 15.7261 0.00367644C18.038 -0.0322719 20.3414 0.292633 22.5531 0.966676C24.3912 1.5261 26.1003 2.44373 27.5821 3.66668C28.9227 4.80458 30.0028 6.21754 30.7491 7.80968C31.5156 9.46918 31.941 11.2657 32.0001 13.0927H23.9611V13.1107Z" fill="#523788"/>
<path d="M50.2921 41.9807C48.0644 42.0192 45.8498 41.6323 43.7671 40.8407C41.9442 40.1359 40.2917 39.052 38.9191 37.6607C37.5713 36.2563 36.5441 34.5764 35.9081 32.7367C35.199 30.7129 34.8484 28.5809 34.8721 26.4367C34.8459 24.2699 35.2065 22.1158 35.9371 20.0757C36.5904 18.2336 37.6383 16.5565 39.0076 15.1619C40.3769 13.7672 42.0344 12.6887 43.8641 12.0017C45.9194 11.2322 48.1008 10.855 50.2951 10.8897C52.4591 10.8562 54.6098 11.2335 56.6331 12.0017C58.4439 12.6869 60.0832 13.7595 61.4363 15.1442C62.7895 16.529 63.8238 18.1925 64.4671 20.0187C65.201 22.0797 65.5616 24.2551 65.5321 26.4427C65.5636 28.619 65.2029 30.7832 64.4671 32.8317C63.8027 34.6578 62.7638 36.3248 61.4171 37.7257C60.0596 39.112 58.4175 40.1874 56.6041 40.8777C54.5882 41.6355 52.4486 42.0106 50.2951 41.9837L50.2921 41.9807ZM50.2951 35.4397C55.1318 35.4397 57.5491 32.4397 57.5471 26.4397C57.5471 20.4797 55.1298 17.4997 50.2951 17.4997C45.4605 17.4997 43.0431 20.4797 43.0431 26.4397C43.0431 32.445 45.4605 35.445 50.2951 35.4397Z" fill="#523788"/>
<path d="M76.3141 0.86969H68.3931V41.2007H76.3141V0.86969Z" fill="#523788"/>
<path d="M89.0031 41.2007L78.2701 11.6717H87.1111L93.3911 31.1787L99.7291 11.6717H108.081L97.2911 41.2007H89.0031Z" fill="#523788"/>
<path d="M115.398 28.4737C115.412 30.4303 116.112 32.32 117.377 33.8127C117.973 34.4677 118.704 34.9845 119.521 35.3271C120.337 35.6696 121.218 35.8295 122.103 35.7957C123.309 35.8189 124.499 35.5181 125.549 34.9247C126.016 34.6696 126.427 34.323 126.757 33.9055C127.087 33.4879 127.33 33.0081 127.47 32.4947H135.636C134.851 35.3204 133.132 37.7969 130.759 39.5207C128.325 41.1949 125.424 42.0554 122.471 41.9787C112.478 41.9787 107.478 36.617 107.471 25.8937C107.442 23.792 107.773 21.7008 108.449 19.7107C109.052 17.9501 110.017 16.3357 111.283 14.9717C112.55 13.6337 114.102 12.5978 115.823 11.9407C117.792 11.2096 119.881 10.8538 121.981 10.8917C126.614 10.8917 130.119 12.353 132.498 15.2757C134.877 18.1983 136.066 22.5983 136.066 28.4757H115.398V28.4737ZM127.888 23.5567C127.869 22.5785 127.673 21.6119 127.312 20.7027C127.003 19.9337 126.534 19.2386 125.938 18.6627C125.379 18.1311 124.715 17.7224 123.988 17.4627C123.263 17.205 122.5 17.0731 121.73 17.0727C120.964 17.0643 120.204 17.2118 119.497 17.5063C118.789 17.8008 118.149 18.2361 117.615 18.7857C116.391 20.0791 115.686 21.7784 115.636 23.5587L127.888 23.5567Z" fill="#523788"/>
<path d="M158.002 41.2007V23.3127C158.002 21.032 157.616 19.4923 156.844 18.6937C156.072 17.895 154.751 17.495 152.88 17.4937C148.777 17.4937 146.724 19.7533 146.722 24.2727V41.1957H138.801V11.6717H146.362V15.9927C147.215 14.3953 148.505 13.0735 150.081 12.1817C153.194 10.7291 156.738 10.494 160.016 11.5227C161.189 11.9125 162.261 12.5584 163.153 13.4137C164.05 14.2886 164.756 15.3405 165.225 16.5027C165.756 17.8483 166.015 19.2856 165.987 20.7317V41.1957H158.001L158.002 41.2007Z" fill="#523788"/>
<path d="M186.47 21.7517H193.844V30.1587C193.851 31.6765 193.614 33.1855 193.144 34.6287C192.681 36.0694 191.906 37.3902 190.874 38.4966C189.842 39.6029 188.578 40.4676 187.172 41.0287C185.436 41.7095 183.582 42.0369 181.718 41.9917C179.803 42.0411 177.896 41.7139 176.107 41.0287C174.664 40.4557 173.364 39.5757 172.295 38.4497C171.299 37.3675 170.559 36.0748 170.13 34.6677C169.678 33.19 169.452 31.6521 169.461 30.1067V3.68967H177.266V11.6727H193.853V17.1967H177.268V29.3167C177.175 30.8426 177.546 32.361 178.333 33.6717C178.741 34.2006 179.275 34.6182 179.887 34.8857C180.499 35.1531 181.168 35.2618 181.833 35.2017C182.494 35.2541 183.159 35.1449 183.768 34.8836C184.378 34.6223 184.915 34.2167 185.333 33.7017C186.16 32.44 186.556 30.9443 186.462 29.4387L186.47 21.7517Z" fill="#523788"/>
<path d="M215.851 41.2007C215.588 40.3415 215.424 39.4551 215.362 38.5587C214.329 39.6616 213.057 40.5125 211.643 41.0457C209.93 41.695 208.109 42.0101 206.277 41.9737C202.826 41.9737 200.296 41.225 198.687 39.7277C197.89 38.9804 197.263 38.0709 196.847 37.0605C196.431 36.0502 196.237 34.9625 196.277 33.8707C196.196 32.1205 196.552 30.3778 197.313 28.7997C197.976 27.5656 198.968 26.5386 200.177 25.8317C201.531 25.061 203.004 24.5225 204.536 24.2387C206.224 23.9007 208.063 23.5913 210.054 23.3107C211.454 23.2048 212.82 22.8271 214.076 22.1987C214.426 21.9226 214.703 21.5649 214.882 21.1569C215.061 20.7489 215.137 20.3031 215.104 19.8588C215.071 19.4144 214.929 18.985 214.69 18.6084C214.452 18.2317 214.125 17.9193 213.738 17.6987C212.601 17.1083 211.328 16.8295 210.048 16.8907C208.63 16.7574 207.216 17.1886 206.113 18.0907C205.286 18.9621 204.764 20.0777 204.623 21.2707H197.249C197.275 19.8387 197.532 18.4204 198.011 17.0707C198.471 15.7982 199.246 14.663 200.263 13.7707C201.443 12.7708 202.828 12.0428 204.32 11.6387C206.305 11.0976 208.357 10.8447 210.414 10.8877C212.444 10.8422 214.47 11.1048 216.421 11.6667C217.902 12.0924 219.261 12.8643 220.385 13.9187C221.404 14.9376 222.148 16.1972 222.55 17.5807C223.018 19.1887 223.243 20.8573 223.219 22.5317V41.1887H215.85L215.851 41.2007ZM215.304 26.7367C214.799 27.1932 214.193 27.5232 213.535 27.6997C212.432 28.0172 211.313 28.2772 210.182 28.4787C208.515 28.6891 206.913 29.2622 205.491 30.1577C205.061 30.5122 204.721 30.9634 204.499 31.4743C204.276 31.9852 204.178 32.5414 204.211 33.0977C204.211 35.2977 205.491 36.3977 208.052 36.3977C209.021 36.408 209.983 36.235 210.887 35.8877C211.718 35.5734 212.482 35.1048 213.139 34.5067C213.77 33.9271 214.287 33.2353 214.664 32.4667C215.047 31.6917 215.244 30.8381 215.24 29.9737L215.304 26.7367Z" fill="#523788"/>
</svg>
