<?xml version="1.0" encoding="utf-8"?>
<!-- Generator: Adobe Illustrator 23.0.2, SVG Export Plug-In . SVG Version: 6.00 Build 0)  -->
<svg version="1.1" id="Capa_1" xmlns="http://www.w3.org/2000/svg" xmlns:xlink="http://www.w3.org/1999/xlink" x="0px" y="0px"
	 viewBox="0 0 33.2 47.43" style="enable-background:new 0 0 33.2 47.43;" xml:space="preserve">
<style type="text/css">
	.st0{opacity:0.4;}
	.st1{opacity:0.3;}
	.st2{fill:#523788;}
	.st3{fill:#F4F4F4;}
	.st4{fill:#979797;}
	.st5{fill:none;stroke:#979797;stroke-width:0.25;stroke-miterlimit:10;}
	.st6{fill:url(#SVGID_1_);}
	.st7{fill:#FFFFFF;}
	.st8{fill:url(#SVGID_2_);}
	.st9{fill:url(#SVGID_3_);}
	.st10{fill:url(#SVGID_4_);}
	.st11{fill:url(#SVGID_5_);}
	.st12{fill:url(#SVGID_6_);}
	.st13{fill:url(#SVGID_7_);}
	.st14{fill:url(#SVGID_8_);}
	.st15{fill:url(#SVGID_9_);}
	.st16{fill:url(#SVGID_10_);}
	.st17{fill:url(#SVGID_11_);}
	.st18{fill:url(#SVGID_12_);}
	.st19{fill:url(#SVGID_13_);}
	.st20{fill:url(#SVGID_14_);}
	.st21{fill:url(#SVGID_15_);}
	.st22{fill:url(#SVGID_16_);}
	.st23{fill:url(#SVGID_17_);}
	.st24{fill:url(#SVGID_18_);}
	.st25{fill:url(#SVGID_19_);}
	.st26{fill:url(#SVGID_20_);}
	.st27{fill:url(#SVGID_21_);}
	.st28{fill:url(#SVGID_22_);}
	.st29{fill:url(#SVGID_23_);}
	.st30{fill:url(#SVGID_24_);}
	.st31{fill:url(#SVGID_25_);}
	.st32{fill:url(#SVGID_26_);}
	.st33{fill:url(#SVGID_27_);}
	.st34{fill:url(#SVGID_28_);}
	.st35{fill:url(#SVGID_29_);}
	.st36{fill:url(#SVGID_30_);}
	.st37{fill:url(#SVGID_31_);}
	.st38{fill:url(#SVGID_32_);}
	.st39{fill:url(#SVGID_33_);}
	.st40{fill:url(#SVGID_34_);}
	.st41{fill:url(#SVGID_35_);}
	.st42{fill:url(#SVGID_36_);}
	.st43{fill:url(#SVGID_37_);}
	.st44{fill:url(#SVGID_38_);}
	.st45{fill:url(#SVGID_39_);}
	.st46{fill:url(#SVGID_40_);}
	.st47{fill:url(#SVGID_41_);}
	.st48{fill:url(#SVGID_42_);}
	.st49{fill:url(#SVGID_43_);}
	.st50{fill:url(#SVGID_44_);}
	.st51{fill:url(#SVGID_45_);}
	.st52{fill:url(#SVGID_46_);}
	.st53{fill:url(#SVGID_47_);}
	.st54{fill:url(#SVGID_48_);}
	.st55{fill:url(#SVGID_49_);}
	.st56{fill:url(#SVGID_50_);}
	.st57{fill:url(#SVGID_51_);}
	.st58{fill:url(#SVGID_52_);}
	.st59{fill:url(#SVGID_53_);}
	.st60{fill:url(#SVGID_54_);}
	.st61{fill:url(#SVGID_55_);}
	.st62{fill:url(#SVGID_56_);}
	.st63{fill:url(#SVGID_57_);}
	.st64{fill:url(#SVGID_58_);}
	.st65{fill:url(#SVGID_59_);}
	.st66{fill:url(#SVGID_60_);}
	.st67{fill:url(#SVGID_61_);}
	.st68{fill:url(#SVGID_62_);}
	.st69{fill:#ECEDEF;}
	.st70{opacity:0.1;fill:#F0F5FA;}
	.st71{fill:#D7D8DC;}
	.st72{fill:#E6E6E6;}
	.st73{opacity:0.1;fill:url(#SVGID_63_);}
	.st74{fill-rule:evenodd;clip-rule:evenodd;fill:#FFFFFF;}
	.st75{fill-rule:evenodd;clip-rule:evenodd;fill:none;stroke:#FFFFFF;stroke-width:0.25;stroke-miterlimit:10;}
	.st76{fill:none;stroke:#FFFFFF;stroke-width:0.5;stroke-miterlimit:10;}
	.st77{opacity:0.3;fill:none;stroke:#FFFFFF;stroke-width:0.5;stroke-miterlimit:10;}
	.st78{fill:#A4CD3C;}
	.st79{fill:#85A939;}
	.st80{fill:#606060;}
	.st81{fill:#CACACA;}
	.st82{fill:url(#SVGID_64_);}
	.st83{fill:#FFEA00;}
	.st84{fill:none;stroke:#FFEA00;stroke-miterlimit:10;}
	.st85{clip-path:url(#SVGID_68_);}
	.st86{fill:#F0F0F0;}
	.st87{clip-path:url(#SVGID_72_);}
	.st88{clip-path:url(#SVGID_78_);fill:#FFFFFF;}
	.st89{fill:url(#SVGID_79_);}
	.st90{fill:url(#SVGID_80_);}
	.st91{fill:url(#SVGID_81_);}
	.st92{fill:url(#SVGID_82_);}
	.st93{fill:url(#SVGID_83_);}
	.st94{fill:url(#SVGID_84_);}
	.st95{fill:url(#SVGID_85_);}
	.st96{fill:url(#SVGID_86_);}
	.st97{fill:#808080;}
	.st98{fill:url(#SVGID_89_);}
	.st99{fill:none;stroke:#523788;stroke-width:0.75;stroke-miterlimit:10;}
	.st100{fill:none;stroke:#523788;stroke-miterlimit:10;}
	.st101{opacity:0.9;}
	.st102{fill:none;stroke:url(#SVGID_90_);stroke-miterlimit:10;}
	.st103{fill:none;stroke:url(#SVGID_91_);stroke-miterlimit:10;}
	.st104{fill:none;stroke:url(#SVGID_92_);stroke-miterlimit:10;}
	.st105{fill:none;stroke:url(#SVGID_93_);stroke-miterlimit:10;}
	.st106{fill:none;stroke:url(#SVGID_94_);stroke-miterlimit:10;}
	.st107{fill:none;stroke:url(#SVGID_95_);stroke-miterlimit:10;}
	.st108{fill:none;stroke:url(#SVGID_96_);stroke-miterlimit:10;}
	.st109{fill:none;stroke:url(#SVGID_97_);stroke-miterlimit:10;}
	.st110{opacity:0.9;fill:url(#SVGID_98_);}
	.st111{fill:#BBA1BF;}
	.st112{opacity:0.9;fill:url(#SVGID_99_);}
	.st113{opacity:0.8;}
</style>
<g>
	<g>
		<g>
			<linearGradient id="SVGID_1_" gradientUnits="userSpaceOnUse" x1="0.5054" y1="20.7643" x2="32.6619" y2="20.7643">
				<stop  offset="0.3305" style="stop-color:#7C3F80"/>
				<stop  offset="0.5689" style="stop-color:#6C3879"/>
				<stop  offset="1" style="stop-color:#452667"/>
			</linearGradient>
			<path class="st6" d="M16.58,0C7.72,0,0.51,7.21,0.51,16.08c0,3.69,1.28,7.28,3.59,10.13c0.02,0.03,0.04,0.05,0.06,0.08
				l11.57,14.82c0.21,0.27,0.52,0.42,0.86,0.42c0.34,0,0.65-0.16,0.86-0.42l11.62-14.9c0-0.01,0.01-0.01,0.01-0.02
				c2.31-2.85,3.58-6.44,3.58-10.12C32.66,7.21,25.45,0,16.58,0z M27.36,24.85c-0.01,0.02-0.03,0.03-0.04,0.05L16.58,38.66
				L5.96,25.05C5.93,25,5.9,24.96,5.87,24.92c-2.05-2.48-3.18-5.62-3.18-8.84c0-7.66,6.23-13.89,13.89-13.89s13.89,6.23,13.89,13.89
				C30.48,19.27,29.37,22.38,27.36,24.85z"/>
		</g>
	</g>
	<g>
		<g>
			<linearGradient id="SVGID_2_" gradientUnits="userSpaceOnUse" x1="6.7482" y1="16.3169" x2="26.4204" y2="16.3169">
				<stop  offset="0.3305" style="stop-color:#7C3F80"/>
				<stop  offset="0.5689" style="stop-color:#6C3879"/>
				<stop  offset="1" style="stop-color:#452667"/>
			</linearGradient>
			<path class="st8" d="M26.02,13.53c-0.17-0.58-0.78-0.91-1.36-0.74c-0.58,0.17-0.91,0.78-0.74,1.36c0.79,2.69,0.06,5.6-1.93,7.58
				c-1.44,1.44-3.37,2.24-5.41,2.24s-3.96-0.8-5.41-2.24c-1.44-1.44-2.24-3.37-2.24-5.41s0.8-3.96,2.24-5.41
				c1.99-1.99,4.89-2.72,7.59-1.93c0.58,0.17,1.19-0.16,1.36-0.74c0.17-0.58-0.16-1.19-0.74-1.36c-3.46-1.03-7.2-0.08-9.75,2.48
				c-1.86,1.86-2.88,4.33-2.88,6.95s1.02,5.1,2.88,6.95c1.86,1.86,4.33,2.88,6.95,2.88s5.1-1.02,6.95-2.88
				C26.09,20.72,27.04,16.99,26.02,13.53z"/>
		</g>
	</g>
	<g>
		<g>
			<linearGradient id="SVGID_3_" gradientUnits="userSpaceOnUse" x1="21.673" y1="10.1449" x2="23.8781" y2="10.1449">
				<stop  offset="0.3305" style="stop-color:#7C3F80"/>
				<stop  offset="0.5689" style="stop-color:#6C3879"/>
				<stop  offset="1" style="stop-color:#452667"/>
			</linearGradient>
			<path class="st9" d="M23.56,9.38l-0.02-0.02c-0.43-0.43-1.12-0.43-1.55,0c-0.43,0.43-0.43,1.12,0,1.55l0.02,0.02
				c0.21,0.21,0.49,0.32,0.77,0.32s0.56-0.11,0.77-0.32C23.98,10.5,23.98,9.81,23.56,9.38z"/>
		</g>
	</g>
	<g>
		<g>
			<linearGradient id="SVGID_4_" gradientUnits="userSpaceOnUse" x1="6.1681" y1="37.0502" x2="8.3561" y2="37.0502">
				<stop  offset="0.3305" style="stop-color:#7C3F80"/>
				<stop  offset="0.5689" style="stop-color:#6C3879"/>
				<stop  offset="1" style="stop-color:#452667"/>
			</linearGradient>
			<path class="st10" d="M8.33,36.84c-0.12-0.59-0.69-0.98-1.29-0.86C7.02,35.98,7,35.99,6.97,36c-0.58,0.16-0.93,0.76-0.77,1.34
				c0.13,0.49,0.57,0.81,1.05,0.81c0.09,0,0.17-0.01,0.26-0.03C8.09,37.97,8.45,37.41,8.33,36.84z"/>
		</g>
	</g>
	<g>
		<g>
			<linearGradient id="SVGID_5_" gradientUnits="userSpaceOnUse" x1="0" y1="41.2418" x2="33.1952" y2="41.2418">
				<stop  offset="0.3305" style="stop-color:#7C3F80"/>
				<stop  offset="0.5689" style="stop-color:#6C3879"/>
				<stop  offset="1" style="stop-color:#452667"/>
			</linearGradient>
			<path class="st11" d="M20.24,35.06c-0.6-0.05-1.13,0.4-1.17,1c-0.05,0.6,0.4,1.13,1,1.17c7.14,0.56,10.94,2.65,10.94,3.94
				c0,0.62-0.99,1.68-3.79,2.61c-2.82,0.94-6.59,1.46-10.62,1.46s-7.8-0.52-10.62-1.46c-2.8-0.93-3.79-1.99-3.79-2.61
				c0-0.57,0.77-1.29,2.07-1.92c0.54-0.27,0.77-0.92,0.5-1.46c-0.27-0.54-0.92-0.77-1.46-0.5C0.57,38.62,0,40.14,0,41.17
				c0,4.11,8.35,6.26,16.6,6.26s16.6-2.15,16.6-6.26C33.2,37.41,26.22,35.52,20.24,35.06z"/>
		</g>
	</g>
</g>
</svg>
