<?xml version="1.0" encoding="utf-8"?>
<!-- Generator: Adobe Illustrator 24.2.1, SVG Export Plug-In . SVG Version: 6.00 Build 0)  -->
<svg version="1.1" id="Capa_1" xmlns="http://www.w3.org/2000/svg" xmlns:xlink="http://www.w3.org/1999/xlink" x="0px" y="0px"
	 viewBox="0 0 477.9 477.9" style="enable-background:new 0 0 477.9 477.9;" xml:space="preserve">
<style type="text/css">
	.st0{fill:#6B2378;}
	.st1{fill:none;stroke:#6B2378;stroke-width:35;stroke-linecap:round;stroke-linejoin:round;stroke-miterlimit:10;}
	.st2{fill:#FFFFFF;stroke:#6B2378;stroke-width:35;stroke-miterlimit:10;}
</style>
<g>
	<g>
		<path class="st0" d="M386.3,233.5c48.6-43.7,52.6-118.5,8.9-167.1C355.1,21.8,288,14.2,239,48.8c-53.4-37.7-127.3-25-165,28.5
			c-34.6,49-27.1,116.2,17.6,156.3C36.1,262.8,1.5,320.4,1.8,383v50.8c0,9.4,7.6,16.9,16.9,16.9h440.4c9.4,0,16.9-7.6,16.9-16.9V383
			C476.3,320.4,441.7,262.8,386.3,233.5z M306.7,61.2c46.7-0.1,84.6,37.8,84.7,84.5c0,33.3-19.5,63.5-49.9,77.2
			c-1.3,0.6-2.6,1.1-3.9,1.7c-4.2,1.7-8.5,3-12.9,4c-0.8,0.2-1.7,0.3-2.6,0.5c-4.9,0.9-9.9,1.4-14.9,1.5c-2.3,0-4.5-0.2-6.8-0.4
			c-0.8,0-1.7,0-2.5-0.2c-9.6-1.1-19-3.9-27.7-8.2c-0.3-0.2-0.7-0.1-1-0.3c-1.7-0.8-3.4-1.5-4.9-2.4c0.1-0.2,0.2-0.4,0.4-0.5
			c7.8-10,13.9-21.1,18.1-33l0.5-1.4c1.9-5.7,3.4-11.5,4.5-17.4c0.2-0.9,0.3-1.7,0.4-2.6c1-6,1.5-12.1,1.5-18.2
			c0-6.1-0.6-12.2-1.5-18.2c-0.1-0.9-0.3-1.7-0.4-2.6c-1.1-5.9-2.6-11.7-4.5-17.4l-0.5-1.4c-4.2-11.9-10.4-23.1-18.1-33
			c-0.1-0.2-0.2-0.4-0.4-0.5C277.2,65.1,291.8,61.2,306.7,61.2z M86.5,145.9c-0.1-46.7,37.6-84.6,84.3-84.7
			c21.9-0.1,42.9,8.4,58.7,23.5c1,0.9,1.9,1.9,2.9,2.9c2.9,3,5.6,6.3,8,9.7c0.7,1.1,1.4,2.2,2.1,3.3c2.4,3.6,4.4,7.5,6.2,11.4
			c0.4,1,0.7,1.9,1.1,2.9c1.8,4.4,3.2,8.9,4.2,13.6c0.1,0.5,0.2,1,0.3,1.5c2.1,10.5,2.1,21.4,0,31.9c-0.1,0.5-0.1,1-0.3,1.5
			c-1,4.6-2.4,9.2-4.2,13.6c-0.4,1-0.7,1.9-1.1,2.9c-1.8,4-3.9,7.8-6.2,11.4c-0.7,1.1-1.4,2.2-2.1,3.3c-2.4,3.4-5.1,6.7-8,9.7
			c-0.9,1-1.9,1.9-2.9,2.9c-6.9,6.5-14.8,11.9-23.4,15.8c-1.4,0.6-2.8,1.2-4.2,1.7c-4.1,1.6-8.3,2.9-12.6,3.9
			c-1.1,0.2-2.2,0.4-3.3,0.6c-4.6,0.9-9.3,1.3-13.9,1.4h-1.9c-4.7-0.1-9.3-0.5-13.9-1.4c-1.1-0.2-2.2-0.3-3.3-0.6
			c-4.3-1-8.5-2.3-12.6-3.9c-1.4-0.6-2.8-1.1-4.2-1.7C106,209.3,86.5,179.1,86.5,145.9z M306.7,416.9h-271V383
			c-0.2-57.4,35.9-108.6,90.1-127.6c29.1,12.1,61.8,12.1,90.9,0c5.7,2.1,11.2,4.5,16.5,7.3c3.5,1.8,6.8,3.9,10.2,6
			c2.2,1.4,4.4,2.7,6.6,4.2c3.3,2.3,6.4,4.8,9.4,7.4c1.9,1.7,3.9,3.4,5.7,5.1c2.8,2.6,5.4,5.4,7.9,8.3c1.8,2.1,3.6,4.2,5.3,6.3
			c2.2,2.8,4.3,5.8,6.3,8.8c1.7,2.5,3.2,5.2,4.7,7.8c1.7,2.9,3.3,5.8,4.7,8.9c1.4,3,2.7,6.4,3.9,9.6c1.1,2.8,2.2,5.6,3.1,8.5
			c1.2,3.9,2,8,2.8,12.1c0.5,2.4,1.2,4.8,1.5,7.2c1,6.7,1.5,13.5,1.5,20.3L306.7,416.9L306.7,416.9z M442.2,416.9H340.6V383
			c0-5.3-0.3-10.6-0.8-15.8c-0.1-1.5-0.4-3-0.5-4.6c-0.5-3.7-1-7.5-1.7-11.1c-0.3-1.6-0.6-3.1-1-4.7c-0.8-3.8-1.8-7.5-2.8-11.2
			c-0.4-1.2-0.7-2.5-1.1-3.7c-4.7-15.2-11.6-29.6-20.4-42.8l-0.7-1c-2.9-4.3-6-8.5-9.3-12.6l-0.1-0.2c-3.4-4.2-7.1-8.3-10.9-12.1
			c0.2,0,0.5,0,0.7,0c4.8,0.6,9.6,1,14.4,1h0.9c4.5,0,8.9-0.3,13.3-0.9c1.4-0.2,2.8-0.4,4.1-0.6c3.6-0.6,7.2-1.3,10.7-2.2
			c1-0.3,2-0.5,3-0.8c4.6-1.3,9.1-2.8,13.6-4.6c54.2,19,90.4,70.3,90.1,127.7L442.2,416.9L442.2,416.9z"/>
	</g>
</g>
</svg>
