<svg xmlns="http://www.w3.org/2000/svg" width="98.167" height="76" viewBox="0 0 98.167 76"><defs><style>.a{fill:#6b2378;}</style></defs><path class="a" d="M97.583,41.25H96V27a6.34,6.34,0,0,0-6.333-6.333H40.579A20.58,20.58,0,1,0,13.667,47.579V77.667A6.34,6.34,0,0,0,20,84H89.667A6.34,6.34,0,0,0,96,77.667V63.417h1.583a1.582,1.582,0,0,0,1.583-1.583v-19A1.582,1.582,0,0,0,97.583,41.25ZM89.667,23.833A3.17,3.17,0,0,1,92.833,27v3.167H42.086c.041-.524.081-1.048.081-1.583a20.521,20.521,0,0,0-.575-4.75Zm-85.5,4.75A17.417,17.417,0,1,1,21.583,46,17.437,17.437,0,0,1,4.167,28.583Zm85.5,52.25H20a3.17,3.17,0,0,1-3.167-3.167V74.5h76v3.167A3.17,3.17,0,0,1,89.667,80.833Zm3.167-9.5h-76V48.592A20.474,20.474,0,0,0,41.592,33.333H92.833V41.25H84.917a11.083,11.083,0,1,0,0,22.167h7.917ZM96,60.25H84.917a7.917,7.917,0,1,1,0-15.833H96Z" transform="translate(-1 -8)"/><path class="a" d="M51,37.75A4.75,4.75,0,1,0,55.75,33,4.756,4.756,0,0,0,51,37.75Zm6.333,0a1.583,1.583,0,1,1-1.583-1.583A1.584,1.584,0,0,1,57.333,37.75Z" transform="translate(28.167 6.583)"/><path class="a" d="M17.917,40.5V37.109a6.32,6.32,0,0,0-1.583-12.442A3.167,3.167,0,1,1,19.5,21.5h3.167a6.325,6.325,0,0,0-4.75-6.108V12H14.75v3.392a6.32,6.32,0,0,0,1.583,12.442A3.167,3.167,0,1,1,13.167,31H10a6.325,6.325,0,0,0,4.75,6.109V40.5Z" transform="translate(4.25 -5.667)"/></svg>