<?xml version="1.0" encoding="utf-8"?>
<!-- Generator: Adobe Illustrator 23.0.2, SVG Export Plug-In . SVG Version: 6.00 Build 0)  -->
<svg version="1.1" id="Capa_1" xmlns="http://www.w3.org/2000/svg" xmlns:xlink="http://www.w3.org/1999/xlink" x="0px" y="0px"
	 viewBox="0 0 22.12 22.12" style="enable-background:new 0 0 22.12 22.12;" xml:space="preserve">
<style type="text/css">
	.st0{opacity:0.4;}
	.st1{opacity:0.3;}
	.st2{fill:#523788;}
	.st3{fill:#F4F4F4;}
	.st4{fill:#979797;}
	.st5{fill:none;stroke:#979797;stroke-width:0.25;stroke-miterlimit:10;}
	.st6{fill:url(#SVGID_1_);}
	.st7{fill:#FFFFFF;}
	.st8{fill:url(#SVGID_2_);}
	.st9{fill:url(#SVGID_3_);}
	.st10{fill:url(#SVGID_4_);}
	.st11{fill:url(#SVGID_5_);}
	.st12{fill:url(#SVGID_6_);}
	.st13{fill:url(#SVGID_7_);}
	.st14{fill:url(#SVGID_8_);}
	.st15{fill:url(#SVGID_9_);}
	.st16{fill:url(#SVGID_10_);}
	.st17{fill:url(#SVGID_11_);}
	.st18{fill:url(#SVGID_12_);}
	.st19{fill:url(#SVGID_13_);}
	.st20{fill:url(#SVGID_14_);}
	.st21{fill:url(#SVGID_15_);}
	.st22{fill:url(#SVGID_16_);}
	.st23{fill:url(#SVGID_17_);}
	.st24{fill:url(#SVGID_18_);}
	.st25{fill:url(#SVGID_19_);}
	.st26{fill:url(#SVGID_20_);}
	.st27{fill:url(#SVGID_21_);}
	.st28{fill:url(#SVGID_22_);}
	.st29{fill:url(#SVGID_23_);}
	.st30{fill:url(#SVGID_24_);}
	.st31{fill:url(#SVGID_25_);}
	.st32{fill:url(#SVGID_26_);}
	.st33{fill:url(#SVGID_27_);}
	.st34{fill:url(#SVGID_28_);}
	.st35{fill:url(#SVGID_29_);}
	.st36{fill:url(#SVGID_30_);}
	.st37{fill:url(#SVGID_31_);}
	.st38{fill:url(#SVGID_32_);}
	.st39{fill:#ECEDEF;}
	.st40{opacity:0.1;fill:#F0F5FA;}
	.st41{fill:#D7D8DC;}
	.st42{fill:#E6E6E6;}
	.st43{opacity:0.1;fill:url(#SVGID_33_);}
	.st44{fill-rule:evenodd;clip-rule:evenodd;fill:#FFFFFF;}
	.st45{fill-rule:evenodd;clip-rule:evenodd;fill:none;stroke:#FFFFFF;stroke-width:0.25;stroke-miterlimit:10;}
	.st46{fill:none;stroke:#FFFFFF;stroke-width:0.5;stroke-miterlimit:10;}
	.st47{opacity:0.3;fill:none;stroke:#FFFFFF;stroke-width:0.5;stroke-miterlimit:10;}
	.st48{fill:#A4CD3C;}
	.st49{fill:#85A939;}
	.st50{fill:#606060;}
	.st51{fill:#CACACA;}
	.st52{fill:url(#SVGID_34_);}
	.st53{fill:#FFEA00;}
	.st54{fill:none;stroke:#FFEA00;stroke-miterlimit:10;}
	.st55{clip-path:url(#SVGID_38_);}
	.st56{fill:#F0F0F0;}
	.st57{clip-path:url(#SVGID_42_);}
	.st58{clip-path:url(#SVGID_48_);fill:#FFFFFF;}
	.st59{fill:url(#SVGID_49_);}
	.st60{fill:url(#SVGID_50_);}
	.st61{fill:url(#SVGID_51_);}
	.st62{fill:url(#SVGID_52_);}
	.st63{fill:url(#SVGID_53_);}
	.st64{fill:url(#SVGID_54_);}
	.st65{fill:url(#SVGID_55_);}
	.st66{fill:url(#SVGID_56_);}
	.st67{fill:#808080;}
	.st68{fill:url(#SVGID_59_);}
	.st69{fill:none;stroke:#523788;stroke-width:0.75;stroke-miterlimit:10;}
	.st70{fill:none;stroke:#523788;stroke-miterlimit:10;}
	.st71{opacity:0.9;}
	.st72{fill:none;stroke:url(#SVGID_60_);stroke-miterlimit:10;}
	.st73{fill:none;stroke:url(#SVGID_61_);stroke-miterlimit:10;}
	.st74{fill:none;stroke:url(#SVGID_62_);stroke-miterlimit:10;}
	.st75{fill:none;stroke:url(#SVGID_63_);stroke-miterlimit:10;}
	.st76{fill:none;stroke:url(#SVGID_64_);stroke-miterlimit:10;}
	.st77{fill:none;stroke:url(#SVGID_65_);stroke-miterlimit:10;}
	.st78{fill:none;stroke:url(#SVGID_66_);stroke-miterlimit:10;}
	.st79{fill:none;stroke:url(#SVGID_67_);stroke-miterlimit:10;}
	.st80{opacity:0.9;fill:url(#SVGID_68_);}
	.st81{fill:#BBA1BF;}
	.st82{opacity:0.9;fill:url(#SVGID_69_);}
	.st83{opacity:0.8;}
</style>
<g>
	<path id="Trazado_33_1_" class="st4" d="M18.81,3.21C14.52-1.07,7.58-1.07,3.3,3.22c-3.5,3.51-4.22,8.92-1.75,13.22L0,22.12
		l5.81-1.53c1.61,0.88,3.41,1.33,5.24,1.33h0.01c6.04,0,11.07-4.92,11.07-10.96C22.09,8.04,20.9,5.25,18.81,3.21z M11.06,20.08
		c-1.63,0-3.24-0.44-4.64-1.27l-0.33-0.2l-3.45,0.9l0.92-3.36L3.34,15.8C0.72,11.49,2.09,5.88,6.41,3.26
		c4.31-2.62,9.93-1.24,12.54,3.07c0.85,1.4,1.31,3,1.32,4.63C20.22,16.01,16.11,20.08,11.06,20.08L11.06,20.08z M16.05,13.25
		c-0.27-0.14-1.62-0.8-1.87-0.89s-0.43-0.14-0.62,0.14c-0.18,0.28-0.71,0.89-0.87,1.08c-0.16,0.18-0.32,0.21-0.59,0.07
		c-1.61-0.8-2.67-1.44-3.73-3.26c-0.28-0.48,0.28-0.45,0.8-1.5c0.07-0.15,0.06-0.33-0.02-0.48C9.09,8.27,8.54,6.92,8.31,6.38
		C8.09,5.84,7.86,5.92,7.69,5.91C7.54,5.9,7.35,5.9,7.17,5.9C6.89,5.91,6.63,6.03,6.44,6.24C5.81,6.83,5.47,7.66,5.48,8.52
		c0,1.35,0.98,2.65,1.12,2.83c0.13,0.18,1.93,2.95,4.68,4.14c1.74,0.75,2.42,0.81,3.29,0.69c0.53-0.08,1.62-0.66,1.85-1.3
		c0.18-0.41,0.23-0.86,0.16-1.3C16.51,13.45,16.33,13.38,16.05,13.25L16.05,13.25z"/>
</g>
</svg>
